<?xml version="1.0" encoding="UTF-8"?>
<svg version="1.1" xmlns="http://www.w3.org/2000/svg" width="1744" height="1027">
<path d="M0 0 C0.93392578 -0.03738281 1.86785156 -0.07476562 2.83007812 -0.11328125 C8.46533734 -0.18466384 12.070533 0.35039832 16.44702148 4.02880859 C21.54174112 9.05156633 23.1225377 14.08944332 23.25 21.1875 C23.16947215 25.15231251 22.87378555 27.95608059 20.8125 31.375 C21.46041504 31.47449951 22.10833008 31.57399902 22.77587891 31.67651367 C26.80545517 32.60340045 30.54593677 34.06346216 34.3984375 35.55078125 C35.65964668 36.03235184 35.65964668 36.03235184 36.94633484 36.52365112 C39.69490739 37.57435129 42.4412326 38.63079097 45.1875 39.6875 C47.10072643 40.42059934 49.01405744 41.1534258 50.92749023 41.88598633 C55.68966073 43.71060365 60.44983355 45.54036148 65.20904541 47.37268066 C67.56927849 48.28136072 69.92983656 49.18918954 72.29052734 50.09667969 C87.2401832 55.84595009 102.15572581 61.6799219 117.05401611 67.56079102 C138.05833711 75.85162607 159.10147689 84.04417054 180.1875 92.125 C191.93918588 96.63016025 203.65699371 101.22062712 215.375 105.8125 C232.09264346 112.36318016 248.82124288 118.88489554 265.5625 125.375 C266.5442923 125.75574677 267.52608459 126.13649353 268.53762817 126.52877808 C269.49531097 126.90011871 270.45299377 127.27145935 271.43969727 127.65405273 C272.33318658 128.00118002 273.22667589 128.3483073 274.14724064 128.7059536 C276.0496737 129.44125984 277.95427917 130.17099425 279.86192036 130.89268112 C284.83623266 132.78334004 289.72994924 134.76198696 294.57302856 136.96858215 C310.96997854 144.21556202 325.23695204 145.7427098 343.03221369 145.36034751 C346.52489902 145.29843374 350.0175656 145.3014453 353.51071167 145.29829407 C361.57418667 145.28111427 369.63591613 145.18964696 377.69871521 145.08946228 C388.02591887 144.96508902 398.3530625 144.87734338 408.6810025 144.85405093 C412.81280922 144.84229981 416.94210856 144.7947365 421.07319474 144.71776807 C424.23758551 144.66703915 427.40216007 144.66106978 430.56689453 144.6472168 C431.69417969 144.61569016 432.82146484 144.58416351 433.98291016 144.55168152 C439.61100652 144.57089059 443.02491693 144.96620227 447.36227417 148.7224884 C448.53224771 149.92088346 449.68355343 151.13787897 450.8125 152.375 C451.95323449 153.440711 453.10163229 154.49835661 454.26171875 155.54296875 C455.89115085 157.05921874 457.5174093 158.57879146 459.14257812 160.09960938 C462.26619691 163.00468788 465.46260223 165.72881339 468.8125 168.375 C470.50183922 170.0186814 472.16509924 171.6892876 473.8125 173.375 C475.08006048 174.66987859 476.35119311 175.96126568 477.625 177.25 C478.22957031 177.86617187 478.83414063 178.48234375 479.45703125 179.1171875 C481.44988187 181.02741579 483.47871258 182.84367241 485.5625 184.65234375 C489.81406386 188.34764204 493.9142504 192.18569157 498 196.0625 C503.16401571 200.94250612 508.33646731 205.81140016 513.5625 210.625 C514.33436646 211.3360791 514.33436646 211.3360791 515.12182617 212.06152344 C517.26298138 214.03237098 519.40582554 216.00137642 521.54882812 217.97021484 C523.30417302 219.5834558 525.05834802 221.19796216 526.8125 222.8125 C527.34069336 223.29686523 527.86888672 223.78123047 528.41308594 224.28027344 C530.86146176 226.53415945 533.14045242 228.75675712 535.3125 231.28515625 C537.64314969 233.71863809 537.64314969 233.71863809 540.72265625 233.203125 C542.25212891 232.79320312 542.25212891 232.79320312 543.8125 232.375 C551.0636891 231.91234744 557.47385743 231.54540345 563.8125 235.375 C569.25879077 240.20239409 572.46255797 244.03801347 573.05078125 251.328125 C573.22724896 259.16700636 572.86240638 265.05437795 567.3515625 270.93359375 C564.51221607 273.4774752 562.5568849 274.43890378 558.8125 275.375 C558.4825 305.075 558.1525 334.775 557.8125 365.375 C684.8625 365.375 811.9125 365.375 942.8125 365.375 C942.8125 406.295 942.8125 447.215 942.8125 489.375 C859.3225 489.375 775.8325 489.375 689.8125 489.375 C689.8125 526.005 689.8125 562.635 689.8125 600.375 C762.4125 600.375 835.0125 600.375 909.8125 600.375 C909.8125 641.295 909.8125 682.215 909.8125 724.375 C837.2125 724.375 764.6125 724.375 689.8125 724.375 C689.8125 799.285 689.8125 874.195 689.8125 951.375 C646.2525 951.375 602.6925 951.375 557.8125 951.375 C557.8125 823.995 557.8125 696.615 557.8125 565.375 C569.1975 562.405 569.1975 562.405 580.8125 559.375 C590.78487803 554.95866116 599.36387602 550.24444193 607.8125 543.375 C608.64007812 542.72273437 609.46765625 542.07046875 610.3203125 541.3984375 C629.48371224 525.35885214 639.28231781 501.72827279 641.75 477.25 C642.7301244 452.71806284 635.29326944 429.41456701 619.8125 410.375 C619.16023437 409.54742187 618.50796875 408.71984375 617.8359375 407.8671875 C605.58368667 393.22873052 589.11461209 384.28616945 570.875 379.5 C570.11356689 379.29648926 569.35213379 379.09297852 568.56762695 378.88330078 C560.51424586 376.94981855 553.41040464 376.91236904 544.8125 376.375 C544.4825 343.705 544.1525 311.035 543.8125 277.375 C540.8425 275.725 537.8725 274.075 534.8125 272.375 C533.94791713 271.29710217 533.08333426 270.21920434 532.19255191 269.10864294 C530.03390138 266.08674712 530.03390138 266.08674712 526.5369274 265.62980902 C524.6533247 265.6332265 524.6533247 265.6332265 522.73166943 265.63671303 C522.0269135 265.62978996 521.32215757 265.6228669 520.5960454 265.61573404 C518.22790596 265.59981634 515.86220106 265.62678927 513.4941864 265.6534729 C511.78219794 265.65085695 510.07021181 265.64560439 508.35823852 265.6379379 C503.64897694 265.62450014 498.94053168 265.64855002 494.23137414 265.67860627 C489.15506834 265.70447898 484.07880984 265.69575151 479.00245667 265.69119263 C470.2057724 265.68804409 461.40935483 265.70689422 452.61273766 265.74061966 C439.89429913 265.78934931 427.17598977 265.805005 414.45746801 265.81254761 C393.82337884 265.82568452 373.18943187 265.86562813 352.55541992 265.92236328 C332.50952873 265.97742408 312.46367614 266.01990118 292.41772461 266.04541016 C291.18242206 266.0469865 289.94711951 266.04856284 288.67438354 266.05018695 C282.47733146 266.05801708 276.2802791 266.06559935 270.08322656 266.07305837 C218.65955276 266.13527471 167.23603331 266.24096769 115.8125 266.375 C115.83462303 268.25967987 115.83462303 268.25967987 115.85719299 270.18243408 C115.99538453 282.01291387 116.12811149 293.84344398 116.2554636 305.67404556 C116.32111562 311.75652785 116.38870493 317.83897586 116.46069336 323.92138672 C116.53007171 329.78925045 116.59439814 335.65714964 116.65519524 341.52510834 C116.67930439 343.7658566 116.7052459 346.00658591 116.73303413 348.24729156 C116.77159033 351.38130225 116.80368054 354.51531653 116.83422852 357.64941406 C116.85364754 359.04447929 116.85364754 359.04447929 116.87345886 360.46772766 C116.8840181 361.75071999 116.8840181 361.75071999 116.89479065 363.05963135 C116.90723485 364.17131369 116.90723485 364.17131369 116.91993046 365.30545425 C116.8125 367.375 116.8125 367.375 115.8125 371.375 C74.8925 371.375 33.9725 371.375 -8.1875 371.375 C-8.1875 370.055 -8.1875 368.735 -8.1875 367.375 C-10.1675 367.375 -12.1475 367.375 -14.1875 367.375 C-14.1875 366.715 -14.1875 366.055 -14.1875 365.375 C-12.5375 365.045 -10.8875 364.715 -9.1875 364.375 C-8.6925 314.875 -8.6925 314.875 -8.1875 264.375 C-43.74132736 264.31986967 -43.74132736 264.31986967 -79.29492188 264.33984375 C-93.79104595 264.36467803 -108.2868431 264.38117131 -122.78295898 264.34423828 C-133.33987621 264.31737934 -143.8963557 264.31850392 -154.45325655 264.35325909 C-160.04344785 264.37068498 -165.63285496 264.37407918 -171.22300911 264.34396362 C-176.48551427 264.3160553 -181.74662801 264.32558207 -187.00905609 264.36373711 C-188.93956901 264.37115142 -190.87019033 264.36492548 -192.80060387 264.34398079 C-202.77771158 263.87339179 -202.77771158 263.87339179 -211.8350811 267.16442871 C-213.57442596 269.15512959 -214.85244 271.10590088 -216.1875 273.375 C-221.90928488 277.08453637 -228.46630224 278.3716333 -235.1875 277.375 C-241.47711109 275.8747258 -246.45364901 272.94938281 -250.4453125 267.73046875 C-254.0779529 261.69723732 -254.01051824 255.21633911 -253.1875 248.375 C-251.44109975 241.76050906 -246.76628605 237.13414294 -241.1875 233.375 C-237.75319702 232.29284957 -234.73036422 232.44640354 -231.14501953 232.64282227 C-224.09612577 233.12835848 -224.09612577 233.12835848 -217.62109375 230.85546875 C-215.79712631 229.0041591 -215.79712631 229.0041591 -214.4140625 227.00390625 C-213.1875 225.375 -213.1875 225.375 -210.1875 224.375 C-208.47297658 222.68346256 -208.47297658 222.68346256 -206.8125 220.625 C-202.03299559 214.90705408 -196.63639931 209.87822955 -191.1875 204.8125 C-190.52814453 204.19826172 -189.86878906 203.58402344 -189.18945312 202.95117188 C-184.50522687 198.59092669 -179.80529026 194.24791002 -175.09912109 189.91137695 C-167.78412758 183.16651283 -160.52218303 176.36455317 -153.25537109 169.56787109 C-146.72918071 163.46410922 -140.20048579 157.36319643 -133.625 151.3125 C-132.71621094 150.47589844 -131.80742187 149.63929688 -130.87109375 148.77734375 C-123.30856865 142.0073977 -123.30856865 142.0073977 -119.75 140 C-116.73337459 138.08701803 -114.53380304 135.8035954 -112.0546875 133.25 C-109.63985596 130.82506456 -107.0705596 128.61720422 -104.48046875 126.3828125 C-101.71844029 123.9642731 -99.0135572 121.48604979 -96.3125 119 C-89.77501646 112.98785914 -83.22664053 106.98832334 -76.5 101.1875 C-71.83113975 97.12473926 -67.34184338 92.87015176 -62.82641602 88.63891602 C-58.45774551 84.54896941 -54.04823008 80.51133353 -49.5859375 76.5234375 C-46.89690633 74.11469622 -44.22946128 71.6831455 -41.5625 69.25 C-38.52794046 66.4863077 -35.48143338 63.74502776 -32.375 61.0625 C-27.80952047 57.10575107 -23.41915935 52.95915242 -19.0222168 48.81713867 C-18.15077026 48.00079956 -18.15077026 48.00079956 -17.26171875 47.16796875 C-16.74182373 46.6783667 -16.22192871 46.18876465 -15.6862793 45.68432617 C-14.1875 44.375 -14.1875 44.375 -11.1875 42.375 C-11.64640625 42.0346875 -12.1053125 41.694375 -12.578125 41.34375 C-17.24047965 37.66088162 -20.6258285 34.21509696 -22.1875 28.375 C-23.07761796 20.51993844 -23.28734957 12.81200524 -18.1875 6.375 C-12.33854178 0.43651691 -7.97698127 0.11865692 0 0 Z M14.8125 38.375 C14.4825 39.035 14.1525 39.695 13.8125 40.375 C14.75668546 42.87573402 15.76331356 45.26200231 16.875 47.6875 C17.19791016 48.40808594 17.52082031 49.12867188 17.85351562 49.87109375 C20.26089622 55.22503253 22.73136222 60.55029821 25.20678711 65.87304688 C26.82628944 69.40507385 28.39495996 72.95684785 29.9453125 76.51953125 C30.56525558 77.94034291 31.1853815 79.3610748 31.80566406 80.78173828 C32.13167603 81.52852844 32.45768799 82.2753186 32.7935791 83.04473877 C34.56178176 87.0885994 36.33981762 91.12813104 38.1171875 95.16796875 C52.20626928 127.2062336 52.20626928 127.2062336 58.10058594 141.06591797 C60.42033812 146.50553827 62.85936844 151.88059385 65.36328125 157.23828125 C69.07185575 165.26519587 72.54951307 173.39949953 76.01171875 181.53515625 C79.9910796 190.88198761 84.03324809 200.17174775 88.40234375 209.34375 C89.63484147 211.99310799 90.76013143 214.65002631 91.8125 217.375 C92.1425 217.375 92.4725 217.375 92.8125 217.375 C92.82129936 216.12925201 92.82129936 216.12925201 92.83027649 214.8583374 C92.88818807 207.03040478 92.9602558 199.20275795 93.04821491 191.375103 C93.09293638 187.35083774 93.13218838 183.32667414 93.15893555 179.30224609 C93.18495113 175.41818766 93.22534059 171.53452003 93.27568626 167.65070343 C93.29236691 166.16920076 93.30387375 164.68763049 93.31011391 163.20604706 C93.31974245 161.13011236 93.34778397 159.05518009 93.38012695 156.97949219 C93.39123001 155.79812683 93.40233307 154.61676147 93.41377258 153.39959717 C93.87147088 149.92766897 94.27781781 148.76720044 96.8125 146.375 C99.49595778 145.97036425 101.77587417 145.82778114 104.46232605 145.85601807 C105.24893138 145.84851681 106.03553671 145.84101556 106.84597856 145.833287 C109.49027646 145.81293486 112.13372304 145.82112696 114.77807617 145.82910156 C116.67012891 145.82037062 118.56217425 145.80988652 120.45420837 145.79777527 C125.59855314 145.76983599 130.74265792 145.76651233 135.88706756 145.76749516 C141.26032286 145.76437285 146.63346899 145.73876893 152.00666809 145.71551514 C162.18511571 145.67489918 172.36349917 145.65460128 182.54201537 145.64154124 C194.12837927 145.62569013 205.71463369 145.5872825 217.3009342 145.54694796 C241.13808609 145.46447244 264.97523505 145.41042817 288.8125 145.375 C285.8950378 142.4575378 282.24495761 141.52401257 278.4375 140.125 C276.50728638 139.40244559 274.57764146 138.67837088 272.6484375 137.953125 C271.56530273 137.54642578 270.48216797 137.13972656 269.36621094 136.72070312 C262.58064661 134.15117643 255.82313172 131.50926852 249.0625 128.875 C247.52703336 128.27730488 245.99155137 127.67964918 244.45605469 127.08203125 C236.06496461 123.8152544 227.67651479 120.54172908 219.2890625 117.265625 C215.75522424 115.88537593 212.22137306 114.50515997 208.6875 113.125 C207.8123172 112.78317688 206.9371344 112.44135376 206.03543091 112.08917236 C194.86914528 107.7286869 183.69478929 103.39126917 172.50146484 99.10058594 C163.2600819 95.55541936 154.03591752 91.96657062 144.8125 88.375 C133.15434627 83.83551091 121.49060639 79.31182504 109.80859375 74.83398438 C96.68273439 69.80028103 83.5899729 64.68115526 70.49624634 59.56459045 C55.77686361 53.81278099 41.05717948 48.0617202 26.3125 42.375 C24.70375 41.75274536 24.70375 41.75274536 23.0625 41.11791992 C22.1034375 40.74900635 21.144375 40.38009277 20.15625 40 C19.33318359 39.68289062 18.51011719 39.36578125 17.66210938 39.0390625 C15.98317122 38.31868168 15.98317122 38.31868168 14.8125 38.375 Z M-11.41015625 54.53515625 C-12.35833925 55.50106703 -13.30484711 56.46862402 -14.25 57.4375 C-19.56015422 62.81611084 -24.87756914 68.16837942 -31.1875 72.375 C-31.1875 73.035 -31.1875 73.695 -31.1875 74.375 C-31.77756836 74.6428833 -32.36763672 74.9107666 -32.97558594 75.18676758 C-35.20934458 76.38673483 -36.75023425 77.64112013 -38.578125 79.38671875 C-39.20074219 79.97582031 -39.82335937 80.56492187 -40.46484375 81.171875 C-41.11582031 81.79578125 -41.76679688 82.4196875 -42.4375 83.0625 C-43.79601722 84.34856296 -45.15538181 85.63373145 -46.515625 86.91796875 C-47.1230957 87.49571045 -47.73056641 88.07345215 -48.35644531 88.66870117 C-50.83761159 90.98081732 -53.3972629 93.19567337 -55.96875 95.40625 C-59.26707557 98.33293325 -62.47101078 101.35893092 -65.6875 104.375 C-78.88859459 116.7349829 -78.88859459 116.7349829 -85.4375 121.5 C-88.6052553 123.82670399 -90.76196103 126.26727819 -93.1875 129.375 C-95.11407143 131.14613679 -97.08902265 132.84467317 -99.08984375 134.53125 C-101.56674599 136.70834098 -103.86398908 139.03592397 -106.1875 141.375 C-93.55754515 141.39812132 -80.9275953 141.41591401 -68.29762363 141.42681217 C-62.43367836 141.43204146 -56.56974751 141.43913994 -50.70581055 141.45043945 C-45.05188288 141.4612667 -39.39796913 141.46727649 -33.74403191 141.46987724 C-31.5817639 141.47173179 -29.41949669 141.47535295 -27.25723457 141.48073006 C-24.23991343 141.48793833 -21.22265057 141.48899103 -18.20532227 141.48852539 C-16.85018272 141.4939183 -16.85018272 141.4939183 -15.46766663 141.49942017 C-11.51196097 141.89039455 -11.51196097 141.89039455 -8.1875 140.375 C-8.09233789 137.6361158 -8.06195406 134.92252059 -8.07397461 132.18334961 C-8.07382858 131.32488937 -8.07368256 130.46642914 -8.0735321 129.58195496 C-8.07423153 126.73039262 -8.0820253 123.87889475 -8.08984375 121.02734375 C-8.09170782 119.05579158 -8.09313178 117.08423895 -8.09413147 115.11268616 C-8.09795749 109.91273733 -8.10778848 104.71281625 -8.11883545 99.51287842 C-8.12904778 94.21106339 -8.13362871 88.9092439 -8.13867188 83.60742188 C-8.14941067 73.19660237 -8.16648809 62.78580349 -8.1875 52.375 C-9.58455236 52.25884127 -9.58455236 52.25884127 -11.41015625 54.53515625 Z M8.8125 71.375 C8.8125 94.145 8.8125 116.915 8.8125 140.375 C11.63074192 141.78412096 13.98501282 141.48683553 17.1328125 141.47265625 C19.01806641 141.46782227 19.01806641 141.46782227 20.94140625 141.46289062 C22.26011719 141.45451172 23.57882812 141.44613281 24.9375 141.4375 C26.27734211 141.43248489 27.617186 141.42792201 28.95703125 141.42382812 C32.24223206 141.41201086 35.52734397 141.39553617 38.8125 141.375 C39.1425 140.715 39.4725 140.055 39.8125 139.375 C39.18737425 137.45652106 39.18737425 137.45652106 38.1015625 135.30078125 C37.68898193 134.42397705 37.27640137 133.54717285 36.85131836 132.64379883 C36.15147827 131.18043091 36.15147827 131.18043091 35.4375 129.6875 C30.00810852 118.10607719 24.84913064 106.4176117 19.75 94.6875 C19.37151917 93.81839996 18.99303833 92.94929993 18.60308838 92.05386353 C17.51420092 89.55332959 16.42664707 87.05222165 15.33984375 84.55078125 C15.01317215 83.79958008 14.68650055 83.04837891 14.34992981 82.27441406 C12.78365598 78.66102982 11.2497942 75.04228338 9.8125 71.375 C9.4825 71.375 9.1525 71.375 8.8125 71.375 Z M-103.1875 158.375 C-103.28179342 160.55305719 -103.30492538 162.7342128 -103.30102539 164.91430664 C-103.30117142 165.59720261 -103.30131744 166.28009857 -103.3014679 166.98368835 C-103.30076876 169.25087614 -103.2929764 171.51798274 -103.28515625 173.78515625 C-103.28329207 175.35314387 -103.28186817 176.92113207 -103.28086853 178.48912048 C-103.27704334 182.62376503 -103.26721306 186.75837466 -103.25616455 190.89300537 C-103.24595044 195.10900398 -103.24137091 199.32500822 -103.23632812 203.54101562 C-103.22559079 211.81902647 -103.20851436 220.0970089 -103.1875 228.375 C-102.07390432 227.42180802 -100.96049686 226.46839616 -99.84716797 225.51489258 C-98.91709427 224.71853142 -98.91709427 224.71853142 -97.9682312 223.90608215 C-91.41172755 218.26876546 -85.12409044 212.42408672 -79.09765625 206.22265625 C-77.1875 204.375 -77.1875 204.375 -74.1875 202.375 C-74.1875 201.715 -74.1875 201.055 -74.1875 200.375 C-73.65141113 200.16560791 -73.11532227 199.95621582 -72.56298828 199.74047852 C-69.26545072 197.8449875 -66.81425572 195.22736115 -64.1796875 192.52734375 C-63.61299347 191.95544815 -63.04629944 191.38355255 -62.46243286 190.79432678 C-60.65762728 188.97174775 -58.85966682 187.14260926 -57.0625 185.3125 C-55.25732685 183.47971379 -53.45071611 181.64840471 -51.6411438 179.81996155 C-50.51652464 178.68307969 -49.39458937 177.54353542 -48.27560425 176.40110779 C-44.41096383 172.48673191 -44.41096383 172.48673191 -42.1875 171.375 C-42.1875 170.715 -42.1875 170.055 -42.1875 169.375 C-41.63578125 169.13910156 -41.0840625 168.90320313 -40.515625 168.66015625 C-37.6070091 167.05456123 -35.39208728 165.04818403 -32.9375 162.8125 C-31.59945312 161.60400391 -31.59945312 161.60400391 -30.234375 160.37109375 C-29.55890625 159.71238281 -28.8834375 159.05367187 -28.1875 158.375 C-28.1875 158.045 -28.1875 157.715 -28.1875 157.375 C-37.81862712 157.35187535 -47.44974474 157.33408429 -57.08089352 157.32318783 C-61.55255549 157.31795926 -66.02419853 157.31086211 -70.49584961 157.29956055 C-74.80761973 157.28873071 -79.11937159 157.28272296 -83.43115425 157.28012276 C-85.07986298 157.27826868 -86.72857066 157.2746484 -88.37727165 157.26926994 C-90.67853872 157.26205822 -92.9797294 157.26100911 -95.28100586 157.26147461 C-96.5933873 157.259254 -97.90576874 157.25703339 -99.25791931 157.25474548 C-102.07745879 157.03912191 -102.07745879 157.03912191 -103.1875 158.375 Z M20.8125 157.375 C20.5840451 159.61862573 20.5840451 159.61862573 22.8125 161.5 C23.81003327 162.4609007 24.81038636 163.41887708 25.8125 164.375 C30.27966782 168.73936689 34.56265907 173.17414822 38.6328125 177.91015625 C41.62593383 181.2948508 44.72078684 184.58047884 47.8125 187.875 C52.0205454 192.363472 56.19913192 196.86069282 60.21484375 201.5234375 C63.36959007 205.17954938 66.59966812 208.76995228 69.8125 212.375 C70.3075 211.385 70.3075 211.385 70.8125 210.375 C69.7547412 207.64167637 68.62768439 205.01727984 67.40234375 202.359375 C67.03782608 201.55195862 66.67330841 200.74454224 66.29774475 199.91265869 C65.12252265 197.31336305 63.93663777 194.7191013 62.75 192.125 C61.59400142 189.5803034 60.44023757 187.03460443 59.28701782 184.48864746 C58.53312892 182.82478358 57.77807065 181.16144902 57.02182007 179.49865723 C54.2177186 173.31982756 51.52922016 167.09940958 48.90844727 160.84082031 C48.03477992 158.47762309 48.03477992 158.47762309 46.8125 157.375 C44.88582493 157.28751793 42.95598139 157.26802666 41.02734375 157.27734375 C39.85751953 157.28056641 38.68769531 157.28378906 37.48242188 157.28710938 C36.25072266 157.29548828 35.01902344 157.30386719 33.75 157.3125 C32.51443359 157.31701172 31.27886719 157.32152344 30.00585938 157.32617188 C26.94135883 157.33800392 23.87695279 157.35448827 20.8125 157.375 Z M123.8125 161.375 C123.57778324 163.46931517 123.57778324 163.46931517 125.2109375 164.78515625 C125.86320312 165.33042969 126.51546875 165.87570313 127.1875 166.4375 C128.29544922 167.38109375 128.29544922 167.38109375 129.42578125 168.34375 C130.21339844 169.0140625 131.00101562 169.684375 131.8125 170.375 C139.0044704 176.72307895 146.00783778 183.27078208 153.01171875 189.82421875 C158.05634728 194.54231759 163.13522813 199.22300717 168.21533203 203.90283203 C170.39055147 205.90781112 172.56313619 207.91563534 174.73583984 209.92333984 C176.88928834 211.91256945 179.04436196 213.90003274 181.19970703 215.88720703 C182.28977868 216.89279235 183.37928232 217.89899368 184.46826172 218.90576172 C186.08157764 220.39706616 187.69683988 221.88623604 189.3125 223.375 C190.2509375 224.24125 191.189375 225.1075 192.15625 226 C194.6425614 228.2230549 197.20045157 230.30284777 199.8125 232.375 C199.83562545 223.26540835 199.85341612 214.15582674 199.86431217 205.0462122 C199.86954056 200.81668629 199.8766374 196.5871804 199.88793945 192.35766602 C199.89876991 188.27931457 199.90477717 184.20098243 199.90737724 180.12261772 C199.90923121 178.56322361 199.91285127 177.0038306 199.91823006 175.44444466 C199.92544262 173.26770838 199.92649085 171.09105286 199.92602539 168.91430664 C199.928246 167.67298477 199.93046661 166.4316629 199.93275452 165.15272522 C200.12997011 162.467183 200.12997011 162.467183 198.8125 161.375 C196.46996218 161.28007278 194.15703896 161.24940209 191.81420898 161.26147461 C191.08254517 161.26132858 190.35088135 161.26118256 189.5970459 161.2610321 C187.16753216 161.26173133 184.73809417 161.26952415 182.30859375 161.27734375 C180.62850486 161.2792079 178.94841543 161.28063181 177.26832581 161.28163147 C172.83776357 161.28545693 168.4072339 161.29528744 163.97668457 161.30633545 C159.45907024 161.31654897 154.94145066 161.32112896 150.42382812 161.32617188 C141.55337107 161.33690969 132.68293824 161.35398644 123.8125 161.375 Z M235.8125 161.375 C238.69494108 164.86969616 241.44240512 168.14962949 244.875 171.125 C245.52597656 171.69734375 246.17695312 172.2696875 246.84765625 172.859375 C248.76192647 174.33598901 250.61678514 175.37739236 252.8125 176.375 C252.8125 177.035 252.8125 177.695 252.8125 178.375 C254.33235614 179.93194875 254.33235614 179.93194875 256.3203125 181.5390625 C260.56889177 185.15213057 264.63683689 188.91786212 268.6875 192.75 C273.8725796 197.63359366 279.08965029 202.46978365 284.40234375 207.21484375 C287.16056009 209.68695661 289.89542556 212.18388225 292.625 214.6875 C293.11750244 215.13875244 293.61000488 215.59000488 294.11743164 216.05493164 C296.89839698 218.60650206 299.66846327 221.16926199 302.4296875 223.7421875 C303.02547607 224.29608154 303.62126465 224.84997559 304.23510742 225.4206543 C305.39611252 226.50071507 306.55518765 227.58285483 307.7121582 228.66723633 C309.93422846 231.2213887 309.93422846 231.2213887 312.8125 232.375 C312.83562545 223.26540835 312.85341612 214.15582674 312.86431217 205.0462122 C312.86954056 200.81668629 312.8766374 196.5871804 312.88793945 192.35766602 C312.89876991 188.27931457 312.90477717 184.20098243 312.90737724 180.12261772 C312.90923121 178.56322361 312.91285127 177.0038306 312.91823006 175.44444466 C312.92544262 173.26770838 312.92649085 171.09105286 312.92602539 168.91430664 C312.928246 167.67298477 312.93046661 166.4316629 312.93275452 165.15272522 C313.12997011 162.467183 313.12997011 162.467183 311.8125 161.375 C309.43949131 161.28005267 307.09571297 161.24940681 304.72241211 161.26147461 C303.98099472 161.26132858 303.23957733 161.26118256 302.47569275 161.2610321 C300.01371379 161.26173135 297.55180957 161.26952426 295.08984375 161.27734375 C293.38733461 161.27920789 291.68482493 161.28063181 289.98231506 161.28163147 C285.49256927 161.28545698 281.00285562 161.29528753 276.51312256 161.30633545 C271.93518509 161.31654887 267.35724244 161.32112894 262.77929688 161.32617188 C253.79035043 161.33690978 244.80142788 161.35398659 235.8125 161.375 Z M347.8125 161.375 C349.4625 163.025 351.1125 164.675 352.8125 166.375 C353.60269531 167.17679688 354.39289062 167.97859375 355.20703125 168.8046875 C359.58600265 173.23317877 364.0172388 177.48550253 368.75 181.53125 C372.10285849 184.52850228 375.21143756 187.76659634 378.37109375 190.96484375 C381.08452727 193.64354532 383.92027023 196.12108118 386.81640625 198.59765625 C389.79738181 201.25194956 392.56537483 204.10488637 395.34375 206.96875 C397.36119408 208.93511955 399.4078504 210.78569714 401.53515625 212.62890625 C406.87408724 217.26013297 411.96094382 222.15011247 417.07226562 227.02929688 C418.1637793 228.06473633 418.1637793 228.06473633 419.27734375 229.12109375 C419.933396 229.74685303 420.58944824 230.3726123 421.26538086 231.01733398 C422.5947118 232.48493119 422.5947118 232.48493119 423.8125 232.375 C423.83564078 223.41306296 423.85342397 214.45113616 423.86431217 205.4891758 C423.86953719 201.32805961 423.87662795 197.16696382 423.88793945 193.00585938 C423.89878184 188.99234185 423.90477972 184.97884399 423.90737724 180.96531296 C423.90922905 179.43186509 423.912845 177.89841832 423.91823006 176.36497879 C423.9254584 174.22197368 423.92649018 172.07905044 423.92602539 169.93603516 C423.928246 168.71469879 423.93046661 167.49336243 423.93275452 166.23501587 C424.01020527 163.42937371 424.01020527 163.42937371 422.8125 161.375 C398.0625 161.375 373.3125 161.375 347.8125 161.375 Z M-123.45922852 165.54907227 C-124.25478149 166.36202759 -124.25478149 166.36202759 -125.06640625 167.19140625 C-125.94776245 168.08533081 -125.94776245 168.08533081 -126.84692383 168.99731445 C-127.47493896 169.63757568 -128.1029541 170.27783691 -128.75 170.9375 C-133.14567591 175.38194902 -137.55831322 179.69741545 -142.33203125 183.73828125 C-145.35712078 186.40672865 -148.13701366 189.31697275 -150.96875 192.1875 C-153.59521122 194.77696881 -156.35726458 197.16336964 -159.15625 199.5625 C-161.42388572 201.5859288 -163.5532695 203.71153347 -165.6875 205.875 C-168.3752846 208.5994154 -171.08566863 211.20760312 -174 213.6875 C-178.14064174 217.23307946 -181.92864 221.08801412 -185.75610352 224.96313477 C-189.14585313 228.37866602 -192.63629246 231.59829799 -196.30859375 234.7109375 C-199.17017293 237.24530908 -201.79163281 240.00571155 -204.42578125 242.7734375 C-206.1875 244.375 -206.1875 244.375 -209.1875 245.375 C-209.1875 246.035 -209.1875 246.695 -209.1875 247.375 C-198.15672906 247.44444194 -187.12600993 247.49778172 -176.09506512 247.53043652 C-170.97321044 247.54610742 -165.85150507 247.56737168 -160.72973633 247.60131836 C-155.78901002 247.633861 -150.84842751 247.65184228 -145.90760231 247.65963173 C-144.02049304 247.66518441 -142.13339183 247.67602716 -140.24634361 247.69219017 C-137.60765816 247.71389682 -134.96957059 247.71696978 -132.33081055 247.71557617 C-131.5467836 247.726362 -130.76275665 247.73714783 -129.95497131 247.7482605 C-127.09547175 247.73186663 -124.7632673 247.6765503 -122.1998291 246.33398438 C-120.59542209 243.22925463 -120.79702836 240.10131572 -120.84692383 236.69067383 C-120.84648575 235.9099501 -120.84604767 235.12922638 -120.84559631 234.32484436 C-120.84768676 231.74365247 -120.8710294 229.1631097 -120.89453125 226.58203125 C-120.90012631 224.79270279 -120.90439683 223.00336973 -120.90739441 221.21403503 C-120.91885032 216.50390948 -120.94832389 211.79406134 -120.98150635 207.08404541 C-121.01219117 202.27807366 -121.02589635 197.47205709 -121.04101562 192.66601562 C-121.0731929 183.23555518 -121.12439825 173.80530066 -121.1875 164.375 C-122.35351093 164.26194453 -122.35351093 164.26194453 -123.45922852 165.54907227 Z M-11.8515625 166.87890625 C-12.49867188 167.55824219 -13.14578125 168.23757812 -13.8125 168.9375 C-17.06588961 172.34359973 -20.51005936 175.42963454 -24.06445312 178.51245117 C-27.48852918 181.51639278 -30.8072064 184.62965558 -34.125 187.75 C-34.82302734 188.40484375 -35.52105469 189.0596875 -36.24023438 189.734375 C-40.6601651 193.89527723 -44.98216823 198.13612707 -49.2421875 202.4609375 C-51.82067876 204.99800721 -54.54433299 207.34113738 -57.2890625 209.6953125 C-59.16720753 211.35704576 -60.93055516 213.08625525 -62.6875 214.875 C-66.91998734 219.17482237 -71.47245416 223.07592392 -76.07421875 226.97265625 C-79.60996288 229.9715195 -82.94516728 233.05358599 -86.1875 236.375 C-87.56114465 237.75135401 -88.93624715 239.12625399 -90.3125 240.5 C-90.97507813 241.16257812 -91.63765625 241.82515625 -92.3203125 242.5078125 C-93.94270833 244.13020833 -95.56510417 245.75260417 -97.1875 247.375 C-85.73099984 247.39812241 -74.27450519 247.41591457 -62.81798649 247.42681217 C-57.49884787 247.43204122 -52.17972516 247.43913927 -46.8605957 247.45043945 C-41.73186015 247.46126755 -36.60313994 247.46727667 -31.47439384 247.46987724 C-29.51308386 247.47173163 -27.55177476 247.47535251 -25.59047127 247.48073006 C-22.85334553 247.48793946 -20.11628403 247.48899099 -17.37915039 247.48852539 C-16.55988068 247.49212067 -15.74061096 247.49571594 -14.89651489 247.49942017 C-11.24246562 247.840555 -11.24246562 247.840555 -8.1875 246.375 C-8.09245749 243.84958998 -8.06192842 241.35162874 -8.07397461 238.82592773 C-8.07382858 238.03574249 -8.07368256 237.24555725 -8.0735321 236.431427 C-8.07423143 233.80712178 -8.08202473 231.18288664 -8.08984375 228.55859375 C-8.09170786 226.74398335 -8.0931318 224.92937244 -8.09413147 223.11476135 C-8.09795721 218.3290977 -8.10778796 213.5434642 -8.11883545 208.7578125 C-8.12904837 203.87825936 -8.13362883 198.99870136 -8.13867188 194.11914062 C-8.14941018 184.53774714 -8.16648727 174.95637607 -8.1875 165.375 C-10.31402316 165.15149907 -10.31402316 165.15149907 -11.8515625 166.87890625 Z M216.8125 168.375 C216.8125 194.775 216.8125 221.175 216.8125 248.375 C220.01938071 249.97844035 223.50432847 249.50422745 227.02587891 249.48852539 C227.8747316 249.48867142 228.72358429 249.48881744 229.59815979 249.4889679 C232.41181977 249.48826966 235.22541404 249.4804814 238.0390625 249.47265625 C239.98676518 249.47079175 241.93446832 249.469368 243.88217163 249.46836853 C249.01470224 249.46454583 254.14720467 249.45471765 259.27972412 249.44366455 C264.51460387 249.43344512 269.74948816 249.42886977 274.984375 249.42382812 C285.26042907 249.41309517 295.53646219 249.3960217 305.8125 249.375 C305.03688721 248.6001123 304.26127441 247.82522461 303.4621582 247.02685547 C301.77522425 245.3385226 300.09325927 243.64519946 298.41796875 241.9453125 C294.14132651 237.62030759 289.82817737 233.43729021 285.20703125 229.484375 C281.84140568 226.51954986 278.58264982 223.44438266 275.3125 220.375 C270.90182718 216.23861875 266.47380292 212.14864338 261.890625 208.203125 C258.4458138 205.17272718 255.09721699 202.03805985 251.73217773 198.91967773 C247.63833428 195.12877515 243.50666041 191.38349711 239.34765625 187.6640625 C237.48736987 185.98435862 235.64270766 184.29374144 233.80859375 182.5859375 C233.28982666 182.10455322 232.77105957 181.62316895 232.23657227 181.12719727 C230.77752505 179.77116867 229.32223058 178.41110546 227.8671875 177.05078125 C224.34364541 173.96430256 220.55985743 171.18551807 216.8125 168.375 Z M327.8125 168.375 C327.8125 194.775 327.8125 221.175 327.8125 248.375 C331.64334731 249.6519491 335.24052855 249.50619309 339.23120117 249.48852539 C340.08995346 249.48867142 340.94870575 249.48881744 341.83348083 249.4889679 C344.6741691 249.48827079 347.51479193 249.48048783 350.35546875 249.47265625 C352.32416244 249.47079135 354.29285659 249.46936779 356.2615509 249.46836853 C361.44503051 249.46454901 366.62848214 249.45472352 371.81195068 249.44366455 C377.1005414 249.4334383 382.38913663 249.4288683 387.67773438 249.42382812 C398.05600188 249.41310077 408.43424862 249.3960311 418.8125 249.375 C415.31359212 245.86212149 411.77258534 242.42146331 408.125 239.0625 C407.17238281 238.17949219 406.21976563 237.29648437 405.23828125 236.38671875 C403.08115508 234.16221541 403.08115508 234.16221541 400.8125 234.375 C400.8125 233.715 400.8125 233.055 400.8125 232.375 C399.36566948 230.87226114 399.36566948 230.87226114 397.4375 229.3125 C394.22907062 226.5842053 391.06269633 223.82355554 387.9375 221 C387.09703125 220.24203125 386.2565625 219.4840625 385.390625 218.703125 C383.671875 217.15104167 381.953125 215.59895833 380.234375 214.046875 C376.4694915 210.65155062 372.70056449 207.26441658 368.875 203.9375 C364.68085635 200.28562947 360.58155708 196.53233816 356.47265625 192.78515625 C353.62553082 190.20560208 350.74240769 187.67299256 347.83984375 185.15625 C344.68178702 182.3815412 341.59272982 179.5307859 338.5 176.68359375 C335.07709689 173.74328018 331.42241608 171.08243706 327.8125 168.375 Z M440.8125 168.375 C440.8125 194.775 440.8125 221.175 440.8125 248.375 C444.51101313 249.60783771 447.92181103 249.50661347 451.7722168 249.48852539 C452.58220123 249.48867142 453.39218567 249.48881744 454.22671509 249.4889679 C456.90507685 249.488271 459.58336913 249.48048903 462.26171875 249.47265625 C464.11831118 249.47079128 465.9749041 249.46936775 467.83149719 249.46836853 C472.71905881 249.4645496 477.60659074 249.45472461 482.49414062 249.44366455 C487.48111571 249.43343704 492.46809558 249.42886803 497.45507812 249.42382812 C507.24089847 249.41310181 517.02669676 249.39603284 526.8125 249.375 C525.44926257 247.3350281 525.44926257 247.3350281 523.8125 245.375 C523.1525 245.375 522.4925 245.375 521.8125 245.375 C521.4825 244.385 521.1525 243.395 520.8125 242.375 C519.22183714 240.76255614 519.22183714 240.76255614 517.25 239.1875 C514.30237358 236.69173788 511.51675934 234.13280903 508.8125 231.375 C506.23240785 228.75459391 503.60146393 226.27176588 500.8125 223.875 C497.30108352 220.85737647 494.05942598 217.64140919 490.8125 214.34375 C488.87358998 212.43513545 486.87550449 210.64789448 484.8125 208.875 C481.30108352 205.85737647 478.05942598 202.64140919 474.8125 199.34375 C472.87358998 197.43513545 470.87550449 195.64789448 468.8125 193.875 C465.30248489 190.85858077 462.06198724 187.64404868 458.81640625 184.34765625 C456.23910997 181.81055173 453.51748643 179.47077887 450.7734375 177.1171875 C448.1101351 174.75098657 445.63293679 172.22306091 443.16015625 169.66015625 C442.00225254 168.25997893 442.00225254 168.25997893 440.8125 168.375 Z M8.8125 171.375 C8.7893759 181.39727763 8.77158457 191.41954897 8.76068783 201.4418478 C8.75545915 206.09511186 8.74836177 210.74835774 8.73706055 215.40161133 C8.72623114 219.88844546 8.72022305 224.37526204 8.71762276 228.86210823 C8.7157686 230.57780293 8.71214818 232.29349662 8.70676994 234.00918388 C8.69955879 236.40384913 8.69850909 238.79844096 8.69897461 241.19311523 C8.69537933 241.90952682 8.69178406 242.62593842 8.68807983 243.36405945 C8.41015159 246.65118208 8.41015159 246.65118208 9.8125 249.375 C12.05179886 249.46936529 14.2941175 249.49242327 16.53540039 249.48852539 C17.2378035 249.48867142 17.9402066 249.48881744 18.66389465 249.4889679 C20.99601278 249.48826872 23.328052 249.48047617 25.66015625 249.47265625 C27.27298438 249.47079208 28.88581307 249.46936818 30.49864197 249.46836853 C34.75165357 249.46454323 39.00463124 249.45471285 43.25762939 249.44366455 C47.5942743 249.43345069 51.93092467 249.42887096 56.26757812 249.42382812 C64.78256769 249.41309059 73.29752963 249.39601403 81.8125 249.375 C77.23237855 243.98480466 77.23237855 243.98480466 72.47265625 238.75390625 C71.89233643 238.13684814 71.3120166 237.51979004 70.71411133 236.8840332 C70.10720459 236.24167725 69.50029785 235.59932129 68.875 234.9375 C67.54685171 233.52606358 66.21872741 232.11460459 64.890625 230.703125 C64.21580078 229.98705078 63.54097656 229.27097656 62.84570312 228.53320312 C59.60090437 225.08891627 56.36241096 221.63872988 53.125 218.1875 C52.50359131 217.52556641 51.88218262 216.86363281 51.24194336 216.18164062 C47.28086082 211.95731994 43.35209357 207.70487316 39.4375 203.4375 C35.34630854 198.97868249 31.13385905 194.66949392 26.828125 190.41796875 C23.66125366 187.20813598 20.74727221 183.79566165 17.8125 180.375 C16.3586069 178.70445855 14.90024273 177.03779813 13.4375 175.375 C12.76976562 174.611875 12.10203125 173.84875 11.4140625 173.0625 C10.88554687 172.505625 10.35703125 171.94875 9.8125 171.375 C9.4825 171.375 9.1525 171.375 8.8125 171.375 Z M109.8125 173.375 C109.78937554 183.13650988 109.77158439 192.8980133 109.76068783 202.65954494 C109.75545922 207.19174094 109.74836199 211.72391827 109.73706055 216.25610352 C109.72623086 220.6262283 109.72022299 224.99633508 109.71762276 229.36647224 C109.71576865 231.03750963 109.71214832 232.70854597 109.70676994 234.37957573 C109.69955841 236.71197551 109.6985091 239.04429993 109.69897461 241.37670898 C109.69537933 242.0744191 109.69178406 242.77212921 109.68807983 243.49098206 C109.42187534 246.71159381 109.42187534 246.71159381 110.8125 249.375 C113.39889038 249.47007821 115.9584856 249.50056376 118.54516602 249.48852539 C119.3548584 249.48867142 120.16455078 249.48881744 120.9987793 249.4889679 C123.68801508 249.48826854 126.37718249 249.4804751 129.06640625 249.47265625 C130.92585716 249.47079215 132.78530856 249.46936821 134.64476013 249.46836853 C139.54879096 249.46454271 144.45279236 249.45471188 149.35681152 249.44366455 C154.35701092 249.43345181 159.35721506 249.42887121 164.35742188 249.42382812 C174.17579421 249.41308967 183.99414466 249.39601248 193.8125 249.375 C190.01819618 245.57474668 186.18003382 241.84618511 182.25 238.1875 C181.68603516 237.65447266 181.12207031 237.12144531 180.54101562 236.57226562 C177.79070908 234.01496305 175.35494854 231.78678267 171.8125 230.375 C171.8125 229.715 171.8125 229.055 171.8125 228.375 C170.43292584 226.94032984 170.43292584 226.94032984 168.5625 225.4375 C164.94878382 222.36647971 161.42285996 219.21524178 157.9375 216 C152.59696141 211.08620146 147.21541998 206.22019921 141.8125 201.375 C136.43153445 196.54948896 131.07166632 191.70324854 125.75 186.8125 C122.05585926 183.42171131 118.35514215 180.03870708 114.625 176.6875 C113.90957031 176.04425781 113.19414062 175.40101563 112.45703125 174.73828125 C111.04020914 173.26863271 111.04020914 173.26863271 109.8125 173.375 Z M8.8125 266.375 C8.8125 294.425 8.8125 322.475 8.8125 351.375 C13.14340085 347.04409915 17.36896081 342.64879568 21.5625 338.1875 C22.63854492 337.0437793 22.63854492 337.0437793 23.73632812 335.87695312 C27.99751501 331.33761079 32.19655648 326.75237283 36.3359375 322.1015625 C40.47774286 317.54165691 44.72475619 313.07987654 48.96679688 308.61328125 C52.7763062 304.58941652 56.47968182 300.49820828 60.11083984 296.31298828 C62.85787564 293.18444163 65.70960238 290.15676268 68.5625 287.125 C69.77899758 285.82585011 70.99513826 284.52636594 72.2109375 283.2265625 C72.81131836 282.58493164 73.41169922 281.94330078 74.03027344 281.28222656 C76.75821855 278.36295161 79.47782104 275.43623473 82.1875 272.5 C83.52941406 271.04980469 83.52941406 271.04980469 84.8984375 269.5703125 C86.92202905 267.73480431 86.92202905 267.73480431 86.8125 266.375 C61.0725 266.375 35.3325 266.375 8.8125 266.375 Z M97.8125 281.375 C96.74332951 282.53779842 95.70795123 283.73172018 94.6875 284.9375 C92.31676381 287.69045692 89.90762673 290.33271522 87.3125 292.875 C84.85801512 295.28565479 82.5580794 297.76852391 80.3125 300.375 C77.55974364 303.57016364 74.66722044 306.5458705 71.65820312 309.49804688 C69.86927022 311.31726859 68.19544443 313.19162654 66.53125 315.125 C63.04829042 319.13021962 59.45575453 323.01576164 55.8125 326.875 C55.1745752 327.55353027 54.53665039 328.23206055 53.87939453 328.93115234 C51.16924317 331.81362929 48.45574316 334.69293782 45.74121094 337.57128906 C43.72198445 339.71295089 41.70472232 341.85645064 39.6875 344 C39.07261719 344.65033203 38.45773437 345.30066406 37.82421875 345.97070312 C37.24027344 346.59138672 36.65632813 347.21207031 36.0546875 347.8515625 C35.5479248 348.38861816 35.04116211 348.92567383 34.51904297 349.47900391 C32.20587788 352.04896672 30.01520586 354.70974932 27.8125 357.375 C36.92209165 357.39812545 46.03167326 357.41591612 55.1412878 357.42681217 C59.37081371 357.43204056 63.6003196 357.4391374 67.82983398 357.45043945 C71.90818543 357.46126991 75.98651757 357.46727717 80.06488228 357.46987724 C81.62427639 357.47173121 83.1836694 357.47535127 84.74305534 357.48073006 C86.91979162 357.48794262 89.09644714 357.48899085 91.27319336 357.48852539 C92.51451523 357.490746 93.7558371 357.49296661 95.03477478 357.49525452 C97.720317 357.69247011 97.720317 357.69247011 98.8125 356.375 C98.90742722 354.03246218 98.93809791 351.71953896 98.92602539 349.37670898 C98.92617142 348.64504517 98.92631744 347.91338135 98.9264679 347.1595459 C98.92576867 344.73003216 98.91797585 342.30059417 98.91015625 339.87109375 C98.9082921 338.19100486 98.90686819 336.51091543 98.90586853 334.83082581 C98.90204307 330.40026357 98.89221256 325.9697339 98.88116455 321.53918457 C98.87095103 317.02157024 98.86637104 312.50395066 98.86132812 307.98632812 C98.85059031 299.11587107 98.83351356 290.24543824 98.8125 281.375 C98.4825 281.375 98.1525 281.375 97.8125 281.375 Z " fill="#007F7F" transform="translate(268.1875,34.625)"/>
<path d="M0 0 C55.40130394 -0.92437366 111.76650983 7.18043616 161.83789062 32.06201172 C163.0210083 32.64136475 163.0210083 32.64136475 164.22802734 33.23242188 C182.6468792 42.31727047 199.3589597 53.56267388 214.83789062 67.06201172 C215.83175781 67.90892578 216.825625 68.75583984 217.84960938 69.62841797 C219.83789062 72.06201172 219.83789062 72.06201172 219.62890625 74.41967773 C218.79242483 77.21388714 217.70920407 79.29911184 216.16992188 81.77294922 C215.61385254 82.6756958 215.0577832 83.57844238 214.48486328 84.50854492 C213.8794873 85.47493896 213.27411133 86.44133301 212.65039062 87.43701172 C211.36241386 89.52151347 210.07465943 91.60615262 208.78710938 93.69091797 C208.12759277 94.7532666 207.46807617 95.81561523 206.78857422 96.91015625 C203.81605596 101.71306122 200.8914198 106.54471202 197.96289062 111.37451172 C192.97388158 119.58178294 187.9438847 127.76313614 182.90039062 135.93701172 C175.10172524 148.57955086 167.44868745 161.30565444 159.83789062 174.06201172 C155.52340727 173.19424582 152.84704644 170.87469987 149.52539062 168.12451172 C106.52750689 133.65327943 47.37415148 114.6005493 -7.81054688 120.59716797 C-12.63553959 121.22354354 -17.39900479 122.07413243 -22.16210938 123.06201172 C-22.83097168 123.19591309 -23.49983398 123.32981445 -24.18896484 123.46777344 C-37.51404758 126.23753742 -51.16335878 131.67665014 -61.49804688 140.71435547 C-63.16210938 142.06201172 -63.16210938 142.06201172 -66.16210938 143.06201172 C-67.22017541 144.90124038 -67.22017541 144.90124038 -68.16210938 147.06201172 C-69.12702958 148.46773113 -70.10714962 149.86309847 -71.09960938 151.24951172 C-76.56761408 159.45820338 -78.2621385 167.21232563 -77.16210938 177.06201172 C-74.15604137 190.7311134 -64.96364393 200.75656592 -53.47558594 208.14697266 C-28.00400003 224.03055218 1.51221278 230.51463954 30.46289062 236.93701172 C104.801007 253.45562468 181.93503738 282.61610868 224.90039062 349.26123047 C246.23805868 384.47671779 249.57633202 427.95251294 239.93017578 467.375 C228.36924356 512.18706012 197.50645808 548.41821548 158.10327148 571.78955078 C118.81861995 594.44133876 71.42807095 608.73447757 25.83789062 607.06201172 C25.83789062 607.72201172 25.83789062 608.38201172 25.83789062 609.06201172 C16.59789062 609.06201172 7.35789062 609.06201172 -2.16210938 609.06201172 C-2.16210938 608.40201172 -2.16210938 607.74201172 -2.16210938 607.06201172 C-3.02964844 607.10841797 -3.8971875 607.15482422 -4.79101562 607.20263672 C-82.26916984 609.35694488 -170.70857754 574.10784377 -229.16210938 524.06201172 C-230.38414063 523.12615234 -230.38414063 523.12615234 -231.63085938 522.17138672 C-232.38367187 521.57841797 -233.13648438 520.98544922 -233.91210938 520.37451172 C-234.56695313 519.87564453 -235.22179688 519.37677734 -235.89648438 518.86279297 C-237.16210938 517.06201172 -237.16210938 517.06201172 -236.96533203 514.30737305 C-236.0614967 510.65549369 -234.71986804 508.41872066 -232.57617188 505.33544922 C-232.20781219 504.79900787 -231.83945251 504.26256653 -231.45993042 503.70986938 C-230.24522738 501.94541816 -229.0161817 500.19147635 -227.78710938 498.43701172 C-226.9246638 497.18908533 -226.06335502 495.94037263 -225.203125 494.69091797 C-223.41552172 492.09637773 -221.62307927 489.50528607 -219.82714844 486.91650391 C-216.12108579 481.56650685 -212.47499319 476.17612046 -208.82846069 470.78546143 C-206.87341945 467.89661035 -204.91407323 465.01068238 -202.95507812 462.12451172 C-202.56538345 461.55020416 -202.17568878 460.97589661 -201.77418518 460.38418579 C-199.28989576 456.72304378 -196.80441738 453.06271111 -194.31826782 449.40283203 C-192.61312463 446.89259078 -190.90835614 444.38209517 -189.20361328 441.87158203 C-188.40187838 440.69111737 -187.59996612 439.51077313 -186.79785156 438.33056641 C-181.54480892 430.60128163 -176.33320256 422.84626456 -171.16210938 415.06201172 C-166.42424501 415.81816475 -163.94526823 417.63419142 -160.47460938 420.81201172 C-111.00338749 464.21160216 -42.16872978 491.22692113 23.83789062 488.06201172 C48.70720313 486.16783993 78.22356388 478.89374334 95.83789062 460.06201172 C103.81403345 450.51356969 107.64057985 440.99622608 107.21679688 428.48779297 C105.90352068 416.61415152 99.42394051 407.37692013 90.35742188 399.87060547 C64.39126425 381.23133263 30.94859245 374.12378821 0.48855591 366.61999512 C-71.1860445 348.908888 -152.03326465 323.99652442 -193.40039062 257.54248047 C-215.4274367 220.11788762 -220.67851178 175.97144225 -210.3203125 133.90478516 C-199.2734909 91.54820431 -171.60593738 57.51957945 -134.29663086 35.09008789 C-93.72178269 11.46624192 -46.70568167 0.91593909 0 0 Z " fill="#007F7F" transform="translate(1484.162109375,388.93798828125)"/>
<path d="M0 0 C1.66632923 0.00282437 3.33267089 0.0012303 4.99899292 -0.00442505 C9.5014859 -0.00728341 14.00129112 0.05131997 18.50316167 0.12131453 C23.21554473 0.18401594 27.92799597 0.18971642 32.64073181 0.2015686 C41.5552226 0.23259554 50.46848057 0.31458058 59.38242954 0.4150635 C69.53462832 0.52700953 79.68688736 0.5818627 89.83955014 0.63201785 C110.71525356 0.73642001 131.58984879 0.91220369 152.46459961 1.13525391 C151.73449962 4.43050259 150.90922546 6.08009398 148.55053711 8.52587891 C147.66144653 9.46040894 147.66144653 9.46040894 146.75439453 10.41381836 C146.12251221 11.06439209 145.49062988 11.71496582 144.83959961 12.38525391 C143.55098457 13.73730448 142.26321369 15.09016015 140.97631836 16.44384766 C140.36191895 17.08692871 139.74751953 17.73000977 139.11450195 18.39257812 C136.69786784 20.94509874 134.39449272 23.58568029 132.10131836 26.24853516 C130.08586189 28.57184178 128.02611498 30.85273856 125.96459961 33.13525391 C123.29411617 36.09395141 120.64161903 39.06451862 118.02709961 42.07275391 C114.37522908 46.26689755 110.62193777 50.36619683 106.87475586 54.47509766 C104.29466825 57.32281186 101.76258105 60.20769408 99.24194336 63.10791016 C97.17100474 65.47014563 95.06947113 67.80321244 92.96459961 70.13525391 C90.2747653 73.11588111 87.60149597 76.10770623 84.96459961 79.13525391 C80.09316758 84.7250538 75.10564811 90.21060288 70.13647461 95.71337891 C66.14755384 100.13646792 62.18892054 104.58140395 58.27709961 109.07275391 C55.43190671 112.3103872 52.53606125 115.50211681 49.64819336 118.70166016 C47.75611276 120.81036537 45.88554203 122.93445192 44.02709961 125.07275391 C40.37522908 129.26689755 36.62193777 133.36619683 32.87475586 137.47509766 C30.29466825 140.32281186 27.76258105 143.20769408 25.24194336 146.10791016 C23.17100474 148.47014563 21.06947113 150.80321244 18.96459961 153.13525391 C16.2747653 156.11588111 13.60149597 159.10770623 10.96459961 162.13525391 C6.09316758 167.7250538 1.10564811 173.21060288 -3.86352539 178.71337891 C-7.85244616 183.13646792 -11.81107946 187.58140395 -15.72290039 192.07275391 C-18.56809329 195.3103872 -21.46393875 198.50211681 -24.35180664 201.70166016 C-26.24388724 203.81036537 -28.11445797 205.93445192 -29.97290039 208.07275391 C-33.62477092 212.26689755 -37.37806223 216.36619683 -41.12524414 220.47509766 C-43.70533175 223.32281186 -46.23741895 226.20769408 -48.75805664 229.10791016 C-50.82899526 231.47014563 -52.93052887 233.80321244 -55.03540039 236.13525391 C-57.7252347 239.11588111 -60.39850403 242.10770623 -63.03540039 245.13525391 C-67.90683242 250.7250538 -72.89435189 256.21060288 -77.86352539 261.71337891 C-84.21147453 268.75226129 -90.50288935 275.82311931 -96.53540039 283.13525391 C-92.69278325 291.73634513 -84.99372356 298.80567811 -78.62353516 305.65283203 C-74.84130713 309.74030174 -71.3390432 314.01501213 -67.84790039 318.35400391 C-65.33569029 321.37544579 -62.71139212 324.25967163 -60.03540039 327.13525391 C-55.76621887 331.72285504 -51.77781522 336.46968119 -47.84790039 341.35400391 C-45.33569029 344.37544579 -42.71139212 347.25967163 -40.03540039 350.13525391 C-35.76621887 354.72285504 -31.77781522 359.46968119 -27.84790039 364.35400391 C-25.33569029 367.37544579 -22.71139212 370.25967163 -20.03540039 373.13525391 C-15.76621887 377.72285504 -11.77781522 382.46968119 -7.84790039 387.35400391 C-5.33569029 390.37544579 -2.71139212 393.25967163 -0.03540039 396.13525391 C4.23378113 400.72285504 8.22218478 405.46968119 12.15209961 410.35400391 C14.66431094 413.37544727 17.28862418 416.25965469 19.96459961 419.13525391 C24.25417721 423.7452703 28.26870858 428.51308627 32.21850586 433.42041016 C34.5529055 436.24198886 36.98450559 438.94116102 39.46459961 441.63525391 C42.73878384 445.19195635 45.87102394 448.80687201 48.90209961 452.57275391 C52.56030975 457.10841834 56.41202926 461.3922656 60.37841797 465.65454102 C64.15950519 469.74186396 67.66149927 474.01568634 71.15209961 478.35400391 C73.66430971 481.37544579 76.28860788 484.25967163 78.96459961 487.13525391 C83.23378113 491.72285504 87.22218478 496.46968119 91.15209961 501.35400391 C93.66430971 504.37544579 96.28860788 507.25967163 98.96459961 510.13525391 C103.23378113 514.72285504 107.22218478 519.46968119 111.15209961 524.35400391 C113.66430971 527.37544579 116.28860788 530.25967163 118.96459961 533.13525391 C123.23378113 537.72285504 127.22218478 542.46968119 131.15209961 547.35400391 C133.66430971 550.37544579 136.28860788 553.25967163 138.96459961 556.13525391 C143.22409199 560.71244323 147.2101501 565.441396 151.11694336 570.32666016 C152.85610813 572.40729155 154.607501 574.38449574 156.46850586 576.35009766 C156.97639648 576.88763672 157.48428711 577.42517578 158.00756836 577.97900391 C159.00008769 579.02000105 160.00109644 580.05298754 161.01147461 581.07666016 C163.88866863 584.09400402 164.46459961 584.76206106 164.46459961 589.13525391 C142.11595545 589.46279546 119.76770886 589.70941549 97.41714859 589.86062431 C87.03843031 589.93271122 76.6612062 590.03092318 66.28344727 590.19140625 C57.23440868 590.33127469 48.18645234 590.42134383 39.13636279 590.45249283 C34.34696324 590.47069359 29.56065867 590.51322244 24.77225494 590.6154747 C20.25680853 590.7111094 15.74570452 590.73970532 11.22934151 590.71876144 C9.57965719 590.72258732 7.92981535 590.75010162 6.28101158 590.80413055 C-5.7933788 591.18010616 -5.7933788 591.18010616 -10.36264515 587.77259302 C-13.81481239 584.47610054 -16.63053753 580.78389589 -19.33050203 576.86045289 C-21.0763431 574.36072068 -23.02101403 572.03803531 -24.97290039 569.69775391 C-25.68575195 568.81990234 -26.39860352 567.94205078 -27.13305664 567.03759766 C-30.55213333 562.90690826 -34.07424977 558.86882097 -37.59545898 554.82519531 C-41.58243798 550.24428753 -45.5235172 545.62783884 -49.43676758 540.98388672 C-52.82021987 536.97141207 -56.23640223 532.98815003 -59.66040039 529.01025391 C-63.15363895 524.94904515 -66.59988746 520.8600642 -69.97290039 516.69775391 C-75.12726831 510.3524851 -80.50902804 504.21015942 -85.87573242 498.04492188 C-91.99618499 491.00253 -98.09570376 483.94522589 -103.97290039 476.69775391 C-109.12726831 470.3524851 -114.50902804 464.21015942 -119.87573242 458.04492188 C-125.99618499 451.00253 -132.09570376 443.94522589 -137.97290039 436.69775391 C-142.07519988 431.64591674 -146.32242017 426.7321941 -150.59545898 421.82519531 C-154.12760802 417.76687219 -157.62996874 413.68607287 -161.09790039 409.57275391 C-166.3948116 403.29061916 -171.73878857 397.04964789 -177.0925293 390.81591797 C-179.57532714 387.9239416 -182.05528871 385.02953389 -184.53540039 382.13525391 C-189.10686292 386.59985108 -193.50626353 391.14101654 -197.67211914 395.98681641 C-200.56452041 399.32187028 -203.54721856 402.57480253 -206.51977539 405.83837891 C-208.55333602 408.06457751 -208.55333602 408.06457751 -210.11352539 410.43212891 C-210.58274414 410.99416016 -211.05196289 411.55619141 -211.53540039 412.13525391 C-212.52540039 412.13525391 -213.51540039 412.13525391 -214.53540039 412.13525391 C-214.76926259 388.59562989 -214.94547127 365.05618061 -215.05352211 341.51562786 C-215.10503144 330.58464859 -215.17522439 319.65439217 -215.28979492 308.72387695 C-215.38963666 299.193988 -215.45402231 289.66462264 -215.47628534 280.13422519 C-215.48929469 275.09013802 -215.51974708 270.04754841 -215.59270096 265.00394249 C-215.66090029 260.25024131 -215.68145367 255.49864507 -215.6664772 250.74450111 C-215.66921425 249.00583045 -215.68892074 247.26708485 -215.72745514 245.52883911 C-215.91251181 236.74564619 -215.92538307 230.67767558 -209.74569702 223.85676575 C-208.01952917 222.27131222 -206.28296386 220.69709265 -204.53540039 219.13525391 C-203.00318743 217.32875603 -201.49850094 215.49816773 -200.03540039 213.63525391 C-196.19821008 208.87929972 -192.14154938 204.3802059 -188.00415039 199.88525391 C-185.59161936 197.19787756 -183.30283829 194.44559947 -181.03540039 191.63525391 C-177.19821008 186.87929972 -173.14154938 182.3802059 -169.00415039 177.88525391 C-166.59161936 175.19787756 -164.30283829 172.44559947 -162.03540039 169.63525391 C-158.19821008 164.87929972 -154.14154938 160.3802059 -150.00415039 155.88525391 C-147.59161936 153.19787756 -145.30283829 150.44559947 -143.03540039 147.63525391 C-139.9819136 143.85065056 -136.82871738 140.21317854 -133.53540039 136.63525391 C-129.42161131 132.16540271 -125.56452742 127.54480498 -121.75024414 122.81884766 C-118.87059152 119.32974475 -115.82846164 116.0052847 -112.78149414 112.66259766 C-110.47352441 110.06562998 -108.27984176 107.40121378 -106.09790039 104.69775391 C-102.23714902 99.92385091 -98.16102964 95.40136963 -94.00415039 90.88525391 C-91.59161936 88.19787756 -89.30283829 85.44559947 -87.03540039 82.63525391 C-83.19821008 77.87929972 -79.14154938 73.3802059 -75.00415039 68.88525391 C-72.59161936 66.19787756 -70.30283829 63.44559947 -68.03540039 60.63525391 C-64.19821008 55.87929972 -60.14154938 51.3802059 -56.00415039 46.88525391 C-53.59161936 44.19787756 -51.30283829 41.44559947 -49.03540039 38.63525391 C-45.9819136 34.85065056 -42.82871738 31.21317854 -39.53540039 27.63525391 C-35.51646718 23.26846867 -31.72482884 18.77588325 -28.03149414 14.13134766 C-27.2077832 13.14263672 -26.38407227 12.15392578 -25.53540039 11.13525391 C-24.72796308 9.92736678 -24.72796308 9.92736678 -23.90421391 8.6950779 C-17.24097485 -0.25945503 -10.34775791 -0.24632654 0 0 Z " fill="#007F7F" transform="translate(619.535400390625,397.86474609375)"/>
<path d="M0 0 C25.39840569 -1.24910192 47.10200161 8.04390869 65.9375 24.71484375 C80.90628853 38.91514537 90.12659702 60.45604284 91 81 C91.03996094 81.81082031 91.07992187 82.62164062 91.12109375 83.45703125 C91.76556727 109.34970266 82.16726558 131.11816969 64.625 149.6875 C50.63890912 163.0791038 30.42387844 172.23632615 11 173 C10.02933594 173.03996094 9.05867187 173.07992187 8.05859375 173.12109375 C-18.09498056 173.65612475 -39.86041866 164.41076047 -58.6875 146.625 C-64.12323912 141.00977893 -73 131.12038825 -73 123 C-56.88878952 121.06466979 -56.88878952 121.06466979 -52.31201172 124.13085938 C-49.89635536 126.6671702 -48.15292544 129.56909293 -46.30859375 132.53125 C-38.85472343 144.48870383 -22.23729534 151.1095432 -9.12109375 154.3046875 C10.49590418 158.03444495 29.5629734 153.08615583 46.00390625 141.96875 C60.45032454 130.87775849 70.32307084 114.04216899 73 96 C74.96332979 76.32035745 69.95997121 58.01002138 57.8125 42.1875 C44.55089389 26.90293702 26.03800544 18.72145499 6.0625 17.25 C4.061875 17.1675 2.06125 17.085 0 17 C0 11.39 0 5.78 0 0 Z " fill="#007F7F" transform="translate(811,419)"/>
<path d="M0 0 C16.41598748 2.05199843 29.44171526 10.34039269 40 23 C50.43962639 37.81823905 53.79026624 54.05550779 51.3125 71.9375 C48.42212288 87.45320494 39.32507958 102.02134617 26.34423828 111.16650391 C18.32878788 116.37195297 9.74357683 121 0 121 C0 81.07 0 41.14 0 0 Z " fill="#007F7F" transform="translate(825,445)"/>
<path d="M0 0 C1.84277344 0.21679688 1.84277344 0.21679688 4 1 C5.33691406 2.95507812 5.33691406 2.95507812 6.515625 5.53125 C6.96292969 6.48902344 7.41023438 7.44679688 7.87109375 8.43359375 C8.55365234 9.95146484 8.55365234 9.95146484 9.25 11.5 C9.90935547 12.92505859 9.90935547 12.92505859 10.58203125 14.37890625 C11.50351631 16.37151924 12.41045677 18.370917 13.30340576 20.3764801 C14.44161316 22.87653116 15.68527646 25.27938634 17.02008057 27.67979431 C23.04377955 38.8357557 24.09072184 48.07235392 23.78125 60.59765625 C23.76627996 62.41179372 23.75491556 64.22596413 23.74694824 66.04014587 C23.71678734 70.75417596 23.63855058 75.46615002 23.54931641 80.17938232 C23.45202885 85.86697155 23.41617377 91.55525863 23.36968994 97.24344635 C23.29280487 105.8303825 23.13928275 114.4128318 23 123 C8.15 123 -6.7 123 -22 123 C-22.4411969 104.20679456 -22.4411969 104.20679456 -22.53710938 96.04101562 C-22.60224737 90.52197331 -22.67828203 85.00498339 -22.82983398 79.48754883 C-23.8545059 41.17587825 -23.8545059 41.17587825 -12.38430786 23.23516846 C-10.12922947 19.59401303 -8.33861242 15.73783171 -6.5 11.875 C-4.49432536 7.81303135 -2.38552674 3.85466211 0 0 Z " fill="#008080" transform="translate(324,562)"/>
<path d="M0 0 C0.99 0 1.98 0 3 0 C10.51953125 15.72265625 10.51953125 15.72265625 12.0637207 19.10375977 C13.45882637 22.05069709 15.08029769 24.76120991 16.81713867 27.51928711 C27.49561995 45.4691607 26.31722465 63.55375692 25.75531006 83.73712158 C25.6207497 89.09567608 25.57210495 94.45567809 25.50832367 99.81545258 C25.40310259 107.87987323 25.19188317 115.93509217 25 124 C10.15 124 -4.7 124 -20 124 C-20.68184976 104.9394025 -20.68184976 104.9394025 -20.83007812 96.56054688 C-20.93019182 90.92897882 -21.04598283 85.30226999 -21.2824707 79.67456055 C-22.37963366 52.85654375 -18.75595894 33.50268063 -4.88426208 10.32221985 C-2.9636946 6.93598845 -1.46593435 3.60000592 0 0 Z " fill="#007F7F" transform="translate(322,843)"/>
<path d="M0 0 C14.85 0 29.7 0 45 0 C45.68184976 19.10070631 45.68184976 19.10070631 45.83007812 27.48828125 C45.9302446 33.12871058 46.04619389 38.76429329 46.2824707 44.40087891 C47.37053012 71.05646707 43.94213819 90.14729048 29.77073669 112.99563599 C28.21914045 115.62818995 27.03478865 118.13288295 26 121 C24.35 121 22.7 121 21 121 C20.57332031 120.15824219 20.14664062 119.31648437 19.70703125 118.44921875 C19.41113602 117.86577194 19.11524078 117.28232513 18.81037903 116.68119812 C18.13341917 115.32867585 17.46764105 113.97051003 16.8120575 112.60749817 C14.63969773 108.12183973 12.31667343 103.8301774 9.71484375 99.578125 C-1.67438279 79.99936712 -1.62886879 62.13786457 -0.89263916 39.98822021 C-0.73305576 34.65998195 -0.67603062 29.32967027 -0.60074615 23.99970245 C-0.47673681 15.99567218 -0.22704331 8.0047321 0 0 Z " fill="#008080" transform="translate(302,421)"/>
<path d="M0 0 C14.85 0 29.7 0 45 0 C45.48130571 18.21385597 45.48130571 18.21385597 45.5859375 26.15039062 C45.65690041 31.50711768 45.73955507 36.86132083 45.90527344 42.21606445 C46.55416884 63.75470776 46.26604946 80.62982645 34.53753662 99.48744202 C32.47999691 102.84976051 30.68943696 106.32803886 28.89276123 109.83470154 C27.31146339 112.91742154 25.65722956 115.95756088 24 119 C21.75 119.375 21.75 119.375 19 119 C14.70429859 114.00539479 12.27378281 107.55046519 9.5 101.625 C8.55272671 99.61688388 7.60482154 97.6090657 6.65625 95.6015625 C6.24181641 94.71807129 5.82738281 93.83458008 5.40039062 92.92431641 C4.64556822 91.34808509 3.87264221 89.777587 3.00420761 88.26098442 C0.20231439 83.2109858 -0.56569276 79.29100395 -0.45410156 73.56445312 C-0.45468567 72.76349213 -0.45526978 71.96253113 -0.45587158 71.13729858 C-0.45310874 68.51815811 -0.42210403 65.90018897 -0.390625 63.28125 C-0.38315616 61.45422995 -0.37746627 59.62720185 -0.37347412 57.8001709 C-0.35826834 53.01275154 -0.31903064 48.22582465 -0.2746582 43.43859863 C-0.22636484 37.68332087 -0.20814738 31.92787761 -0.18484497 26.17245483 C-0.14617612 17.44796168 -0.06948754 8.72454712 0 0 Z " fill="#008080" transform="translate(302,704)"/>
<path d="M0 0 C10.23 0 20.46 0 31 0 C31 34.65 31 69.3 31 105 C30.01 105 29.02 105 28 105 C27.28891712 103.53559843 26.57789735 102.07116619 25.86712646 100.60661316 C25.22642121 99.28727622 24.58500051 97.96828653 23.94293213 96.64961243 C22.13235566 92.92740769 20.33708746 89.19888359 18.56640625 85.45751953 C15.38085676 78.75642432 12.23608887 72.17678802 8.265625 65.89453125 C-4.02148346 45.659244 -1.02493672 22.84280266 0 0 Z " fill="#007F7F" transform="translate(352,842)"/>
<path d="M0 0 C10.23 0 20.46 0 31 0 C32.47157711 26.4883879 33.4882338 46.96459922 18.87744141 69.92285156 C15.78325953 74.99425187 13.35654365 80.35985031 10.875 85.75 C10.02089885 87.55855485 9.16429972 89.36593307 8.3046875 91.171875 C7.91893555 91.98462891 7.53318359 92.79738281 7.13574219 93.63476562 C5.46621598 97.11162932 3.7376491 100.55673219 2 104 C1.34 104 0.68 104 0 104 C0 69.68 0 35.36 0 0 Z " fill="#007F7F" transform="translate(265,562)"/>
<path d="M0 0 C10.23 0 20.46 0 31 0 C32.85980208 28.10367587 31.95618291 48.30041233 17.08251953 72.49658203 C13.82564323 77.86156182 11.24959648 83.55695147 8.625 89.25 C7.76507577 91.06868139 6.9032923 92.88648565 6.0390625 94.703125 C5.51626709 95.81155762 5.51626709 95.81155762 4.98291016 96.94238281 C4.01237363 98.97409712 3.01328235 100.98931214 2 103 C1.34 103 0.68 103 0 103 C0 69.01 0 35.02 0 0 Z " fill="#008080" transform="translate(265,842)"/>
<path d="M0 0 C3 1 3 1 4.26757812 3.05932617 C4.68458984 3.96142822 5.10160156 4.86353027 5.53125 5.79296875 C6.0068335 6.80536621 6.48241699 7.81776367 6.97241211 8.86083984 C7.47651611 9.9586377 7.98062012 11.05643555 8.5 12.1875 C9.57255765 14.47603965 10.64681127 16.76378514 11.72265625 19.05078125 C12.53887451 20.79222412 12.53887451 20.79222412 13.37158203 22.56884766 C16.22945768 28.59052448 19.24213779 34.53349375 22.2578125 40.47729492 C23.10270918 42.15100276 23.9337872 43.83175968 24.75073242 45.51928711 C25.95916106 48.00735481 25.95916106 48.00735481 27.4152832 50.29516602 C32.8008509 59.84910029 31.5424471 70.5743565 31.3125 81.1875 C31.28737968 83.20895672 31.26457312 85.23044359 31.24414062 87.25195312 C31.19373699 92.16933185 31.0958376 97.08246629 31 102 C20.77 102 10.54 102 0 102 C0 68.34 0 34.68 0 0 Z " fill="#008080" transform="translate(265,440)"/>
<path d="M0 0 C0.99 0 1.98 0 3 0 C3 33 3 66 3 100 C-7.23 100 -17.46 100 -28 100 C-30.03240775 55.77973445 -30.03240775 55.77973445 -18.57421875 38.51464844 C-15.67289587 33.8800911 -13.48294082 28.89170029 -11.1875 23.9375 C-10.2800205 22.02799193 -9.37121935 20.11911126 -8.4609375 18.2109375 C-5.59704744 12.16055827 -2.77177015 6.09321624 0 0 Z " fill="#007F7F" transform="translate(380,723)"/>
<path d="M0 0 C10.23 0 20.46 0 31 0 C31 32.67 31 65.34 31 99 C30.01 99 29.02 99 28 99 C27.72027344 98.41549072 27.44054687 97.83098145 27.15234375 97.22875977 C26.28445814 95.41607184 25.41479347 93.60423527 24.54394531 91.79296875 C23.49144576 89.59077488 22.44954668 87.38349078 21.41699219 85.171875 C18.71643678 79.43534987 15.95575881 73.82160687 12.75549316 68.34558105 C-0.62116528 45.40475097 -1.89215737 26.2668235 0 0 Z " fill="#007F7F" transform="translate(352,562)"/>
<path d="M0 0 C0.99 0 1.98 0 3 0 C3 32.01 3 64.02 3 97 C-7.23 97 -17.46 97 -28 97 C-28.18574473 91.59276442 -28.34424344 86.19697264 -28.43945312 80.7890625 C-28.47920421 78.95794812 -28.53342832 77.1270793 -28.60351562 75.296875 C-29.07711086 62.59337939 -27.65150251 53.71837287 -21.05963135 42.79376221 C-19.4272557 40.03044858 -18.03508058 37.15705384 -16.62109375 34.27734375 C-16.09539795 33.2311084 -15.56970215 32.18487305 -15.02807617 31.10693359 C-9.85950877 20.8078788 -4.7621671 10.4940846 0 0 Z " fill="#007F7F" transform="translate(380,445)"/>
<path d="M0 0 C3 1 3 1 4.17578125 2.76806641 C4.55089844 3.53812012 4.92601562 4.30817383 5.3125 5.1015625 C5.74280518 5.97304932 6.17311035 6.84453613 6.61645508 7.74243164 C7.0730249 8.6936792 7.52959473 9.64492676 8 10.625 C8.47912842 11.6039624 8.95825684 12.5829248 9.4519043 13.59155273 C10.97950967 16.72223462 12.49118796 19.8602225 14 23 C14.49193848 24.01819824 14.98387695 25.03639648 15.49072266 26.08544922 C21.45275957 38.42843406 21.45275957 38.42843406 23.65234375 43.20288086 C24.58047339 45.12925428 25.58343236 47.0207468 26.64453125 48.87719727 C32.00626988 58.80953355 31.70294302 67.8449717 31.375 78.8125 C31.34482991 80.58393849 31.31746667 82.35542711 31.29296875 84.12695312 C31.23275412 88.4202562 31.11529218 92.70643382 31 97 C20.77 97 10.54 97 0 97 C0 64.99 0 32.98 0 0 Z " fill="#008080" transform="translate(265,726)"/>
<path d="M0 0 C0.99 0 1.98 0 3 0 C4.11081574 2.28248469 5.22146847 4.56504848 6.33203125 6.84765625 C6.68005798 7.56280899 7.02808472 8.27796173 7.38665771 9.01478577 C9.31047191 12.96937856 11.23110232 16.92547482 13.14624023 20.88427734 C16.58348244 27.98666453 20.02603731 35.08311293 23.578125 42.12890625 C24.09012451 43.15814209 24.60212402 44.18737793 25.12963867 45.24780273 C26.05569206 47.10732552 26.99509548 48.96028594 27.95043945 50.80493164 C28.3599585 51.63500732 28.76947754 52.46508301 29.19140625 53.3203125 C29.54404541 54.01398926 29.89668457 54.70766602 30.26000977 55.42236328 C31 58 31 58 31 67 C20.77 67 10.54 67 0 67 C0 44.89 0 22.78 0 0 Z " fill="#007F7F" transform="translate(352,618)"/>
<path d="M0 0 C10.23 0 20.46 0 31 0 C31 10.1249848 31 10.1249848 29.29101562 13.53149414 C28.91642212 14.30002213 28.54182861 15.06855011 28.15588379 15.86036682 C27.74350464 16.66054733 27.33112549 17.46072784 26.90625 18.28515625 C26.48130249 19.14451279 26.05635498 20.00386932 25.61853027 20.88926697 C24.26223201 23.62230702 22.88176861 26.342264 21.5 29.0625 C20.60253322 30.86051373 19.70668608 32.65933684 18.8125 34.45898438 C16.64236658 38.81729588 14.45292435 43.16552657 12.25634766 47.51055908 C10.27442771 51.43771459 8.30894733 55.37305066 6.34375 59.30859375 C5.6894764 60.61776879 5.03518214 61.92693351 4.38085938 63.23608398 C3.69733398 64.60422241 3.69733398 64.60422241 3 66 C2.01 66 1.02 66 0 66 C0 44.22 0 22.44 0 0 Z " fill="#007F7F" transform="translate(352,421)"/>
<path d="M0 0 C0.66 0 1.32 0 2 0 C2 21.45 2 42.9 2 65 C-8.23 65 -18.46 65 -29 65 C-29 58.25027173 -29 58.25027173 -27.39868164 55.0402832 C-27.04733658 54.3212532 -26.69599152 53.60222321 -26.33399963 52.86140442 C-25.94663132 52.09889877 -25.559263 51.33639313 -25.16015625 50.55078125 C-24.75977646 49.73868698 -24.35939667 48.92659271 -23.94688416 48.08988953 C-22.66314412 45.49176916 -21.36343574 42.90204606 -20.0625 40.3125 C-18.80262135 37.77840657 -17.54612225 35.24265752 -16.28988647 32.70675659 C-15.4543882 31.02143374 -14.61717216 29.33696137 -13.77822876 27.65335083 C-10.3456112 20.75156573 -7.03330251 13.79656794 -3.77613831 6.81037903 C-1.10286284 1.10286284 -1.10286284 1.10286284 0 0 Z " fill="#008080" transform="translate(294,902)"/>
<path d="M0 0 C10.23 0 20.46 0 31 0 C31 21.12 31 42.24 31 64 C28 63 28 63 26.73242188 61.04833984 C26.31541016 60.19449707 25.89839844 59.3406543 25.46875 58.4609375 C24.9931665 57.49881348 24.51758301 56.53668945 24.02758789 55.54541016 C23.27143188 53.97605713 23.27143188 53.97605713 22.5 52.375 C21.97462646 51.30427246 21.44925293 50.23354492 20.90795898 49.13037109 C19.2591304 45.75964112 17.62680351 42.38140988 16 39 C15.48711426 37.93458984 14.97422852 36.86917969 14.44580078 35.77148438 C11.69514422 30.04697614 8.95845915 24.31612538 6.25048828 18.57128906 C5.39214694 16.80634353 4.49768258 15.05864925 3.57373047 13.32714844 C3.11498535 12.46379883 2.65624023 11.60044922 2.18359375 10.7109375 C1.7652124 9.9482959 1.34683105 9.1856543 0.91577148 8.39990234 C0 6 0 6 0 0 Z " fill="#007F7F" transform="translate(265,704)"/>
<path d="M0 0 C0.99 0 1.98 0 3 0 C4.28515625 2.66210938 4.28515625 2.66210938 5.5703125 5.32421875 C6.13089355 6.48501953 6.69147461 7.64582031 7.26904297 8.84179688 C8.51713857 11.42692994 9.76334971 14.0129606 11.00830078 16.59960938 C13.99752481 22.80646989 16.9956167 29.008061 20.04776001 35.1842804 C21.34967617 37.82006511 22.64453194 40.45928935 23.93890381 43.0987854 C24.56058037 44.36141265 25.1857616 45.62232065 25.81451416 46.88143921 C26.69511644 48.6457228 27.5626875 50.41649239 28.4296875 52.1875 C28.92710449 53.19167969 29.42452148 54.19585938 29.93701172 55.23046875 C31 58 31 58 31 63 C20.77 63 10.54 63 0 63 C0 42.21 0 21.42 0 0 Z " fill="#007F7F" transform="translate(352,904)"/>
<path d="M0 0 C10.23 0 20.46 0 31 0 C30.17015963 5.80888258 29.55102112 8.50072684 27.0078125 13.4375 C26.70572876 14.03185852 26.40364502 14.62621704 26.09240723 15.23858643 C25.11206609 17.16369837 24.11846027 19.08163103 23.125 21 C21.75615323 23.68012713 20.3941591 26.36372473 19.03125 29.046875 C18.68985992 29.71644226 18.34846985 30.38600952 17.99673462 31.0758667 C14.76856183 37.41831185 11.67684202 43.82070318 8.625 50.25 C8.16754395 51.21292969 7.71008789 52.17585937 7.23876953 53.16796875 C6.45302606 54.8239573 5.66833126 56.48044436 4.88525391 58.13769531 C4.27020523 59.43157046 3.64068678 60.71862644 3 62 C2.01 62 1.02 62 0 62 C0 41.54 0 21.08 0 0 Z " fill="#007F7F" transform="translate(352,704)"/>
<path d="M0 0 C0.66 0 1.32 0 2 0 C2 20.46 2 40.92 2 62 C-8.23 62 -18.46 62 -29 62 C-28.07573571 57.37867855 -26.62955875 53.78708438 -24.5703125 49.62890625 C-24.22370071 48.91768616 -23.87708893 48.20646606 -23.51997375 47.47369385 C-22.39398043 45.1671415 -21.25968282 42.86478831 -20.125 40.5625 C-19.35123601 38.98221461 -18.57788141 37.40172872 -17.80493164 35.82104492 C-11.94099574 23.8455247 -6.01475593 11.90052502 0 0 Z " fill="#008080" transform="translate(294,623)"/>
<path d="M0 0 C10.23 0 20.46 0 31 0 C31 20.13 31 40.26 31 61 C28 60 28 60 26.66563416 57.9147644 C26.21644119 56.99655914 25.76724823 56.07835388 25.30444336 55.13232422 C24.79058578 54.09389374 24.27672821 53.05546326 23.74729919 51.98556519 C23.2003389 50.85337555 22.6533786 49.72118591 22.08984375 48.5546875 C21.52173477 47.39631378 20.95362579 46.23794006 20.36830139 45.04446411 C19.16424558 42.58768879 17.96713943 40.12768898 16.77514648 37.66503906 C15.2538371 34.52270046 13.71878056 31.38733835 12.17876339 28.25413322 C10.70535543 25.25319766 9.24157568 22.24761151 7.77734375 19.2421875 C7.22835922 18.12214325 6.67937469 17.002099 6.11375427 15.84811401 C5.60304886 14.79077057 5.09234344 13.73342712 4.56616211 12.64404297 C4.11776474 11.72106415 3.66936737 10.79808533 3.2073822 9.84713745 C2 7 2 7 0 0 Z " fill="#007F7F" transform="translate(265,421)"/>
<path d="M0 0 C5.28 0 10.56 0 16 0 C16 10.23 16 20.46 16 31 C15.01 31 14.02 31 13 31 C11.13853214 27.23288869 9.28746832 23.46089787 7.44580078 19.68408203 C6.81809163 18.40047028 6.1875802 17.1182249 5.55419922 15.83740234 C4.64327342 13.99410038 3.74260116 12.14608902 2.84375 10.296875 C2.29912109 9.18666992 1.75449219 8.07646484 1.19335938 6.93261719 C0 4 0 4 0 0 Z " fill="#007F7F" transform="translate(331,842)"/>
<path d="M0 0 C4.62 0 9.24 0 14 0 C12.84034013 5.79829936 10.65282071 10.44372479 8.125 15.75 C7.45404297 17.20599609 7.45404297 17.20599609 6.76953125 18.69140625 C6.33253906 19.61308594 5.89554687 20.53476562 5.4453125 21.484375 C4.85000732 22.74846191 4.85000732 22.74846191 4.24267578 24.03808594 C3 26 3 26 0 27 C0 18.09 0 9.18 0 0 Z " fill="#008080" transform="translate(302,842)"/>
<path d="M0 0 C0.99 0 1.98 0 3 0 C3 8.58 3 17.16 3 26 C-1.62 26 -6.24 26 -11 26 C-10.19918189 21.99590947 -9.44100993 19.47955214 -7.71484375 15.91796875 C-7.26689453 14.98662109 -6.81894531 14.05527344 -6.35742188 13.09570312 C-5.88884766 12.13599609 -5.42027344 11.17628906 -4.9375 10.1875 C-4.46505859 9.20845703 -3.99261719 8.22941406 -3.50585938 7.22070312 C-2.34229316 4.81129833 -1.17353704 2.40455993 0 0 Z " fill="#007F7F" transform="translate(344,797)"/>
<path d="M0 0 C0.66 0 1.32 0 2 0 C4.00629174 4.12196906 6.00396221 8.24805701 8 12.375 C8.57234375 13.550625 9.1446875 14.72625 9.734375 15.9375 C10.27578125 17.05898438 10.8171875 18.18046875 11.375 19.3359375 C11.87773437 20.37282715 12.38046875 21.4097168 12.8984375 22.47802734 C14 25 14 25 14 27 C9.38 27 4.76 27 0 27 C0 18.09 0 9.18 0 0 Z " fill="#008080" transform="translate(302,515)"/>
<path d="M0 0 C4.29 0 8.58 0 13 0 C13 8.25 13 16.5 13 25 C10 24 10 24 8.74145508 22.00634766 C8.33822021 21.15089355 7.93498535 20.29543945 7.51953125 19.4140625 C7.07802734 18.48335937 6.63652344 17.55265625 6.18164062 16.59375 C5.50391602 15.12421875 5.50391602 15.12421875 4.8125 13.625 C4.11737305 12.16707031 4.11737305 12.16707031 3.40820312 10.6796875 C0 3.4115312 0 3.4115312 0 0 Z " fill="#007F7F" transform="translate(334,562)"/>
<path d="M0 0 C0.99 0 1.98 0 3 0 C3 7.59 3 15.18 3 23 C-1.29 23 -5.58 23 -10 23 C-9.19556303 19.78225211 -8.34501913 17.39525115 -6.93359375 14.453125 C-6.53076172 13.60878906 -6.12792969 12.76445313 -5.71289062 11.89453125 C-5.29201172 11.02183594 -4.87113281 10.14914062 -4.4375 9.25 C-4.01275391 8.36183594 -3.58800781 7.47367188 -3.15039062 6.55859375 C-2.10354152 4.37079674 -1.05331073 2.18469149 0 0 Z " fill="#008080" transform="translate(344,519)"/>
<path d="M0 0 C0.99 0 1.98 0 3 0 C4.50626117 3.12202006 6.00393243 6.24808399 7.5 9.375 C7.92925781 10.26445313 8.35851562 11.15390625 8.80078125 12.0703125 C9.20683594 12.92109375 9.61289062 13.771875 10.03125 14.6484375 C10.40830078 15.43395996 10.78535156 16.21948242 11.17382812 17.02880859 C12 19 12 19 12 21 C8.04 21 4.08 21 0 21 C0 14.07 0 7.14 0 0 Z " fill="#008080" transform="translate(302,802)"/>
<path d="M0 0 C5.61 0 11.22 0 17 0 C17 0.99 17 1.98 17 3 C12.38 3 7.76 3 3 3 C3.33 11.91 3.66 20.82 4 30 C2.68 30.33 1.36 30.66 0 31 C0 20.77 0 10.54 0 0 Z " fill="#007F7F" transform="translate(301,561)"/>
</svg>
