<?xml version="1.0" encoding="UTF-8"?>
<svg version="1.1" xmlns="http://www.w3.org/2000/svg" width="842" height="500">
<path d="M0 0 C2.65563802 1.8968843 3.57242527 3.14485055 5 6 C5.13415472 8.6723621 5.04318541 11.32250488 5 14 C15.19135619 18.33097793 25.49380425 22.35977379 35.8125 26.375 C37.62785437 27.08250398 39.44320256 27.79002381 41.25854492 28.49755859 C55.02966242 33.86091521 68.82024337 39.17299277 82.6171875 44.46948242 C94.02559139 48.8499615 105.42299763 53.25810987 116.8125 57.6875 C117.56544342 57.98013733 118.31838684 58.27277466 119.09414673 58.57427979 C121.23618193 59.40697658 123.37791904 60.24043474 125.51953125 61.07421875 C127.35543781 61.78891051 129.19142264 62.50351758 131.03302002 63.20341492 C132.43677185 63.77190457 133.81802812 64.39728395 135.18035889 65.05891418 C142.6108265 68.49359944 149.38638437 68.49216038 157.4765625 68.36328125 C158.85557781 68.3604804 160.23460127 68.36046759 161.61361694 68.36308289 C167.41922351 68.36954249 173.22407316 68.32914477 179.02929688 68.2644043 C182.60086041 68.22651169 186.17119596 68.22290246 189.74290085 68.23943138 C191.74371583 68.23830674 193.74438784 68.19813268 195.74478149 68.15705872 C201.82183414 68.1896164 205.97607813 68.27861257 210.68847656 72.36547852 C211.81591928 73.55505314 212.92189632 74.76553359 214 76 C215.05339683 76.98403807 216.11803775 77.95622383 217.1953125 78.9140625 C218.66350665 80.27263149 220.13169195 81.63121268 221.59765625 82.9921875 C224.12383136 85.32404145 226.68483057 87.56347872 229.3671875 89.7109375 C230.23601562 90.46632813 231.10484375 91.22171875 232 92 C232 92.66 232 93.32 232 94 C232.58652344 94.2578125 233.17304688 94.515625 233.77734375 94.78125 C236.17337123 96.09506472 237.68911552 97.5218401 239.5625 99.5 C241.67524223 101.72096733 243.41613626 103.27742417 246 105 C246 105.66 246 106.32 246 107 C246.61875 107.28875 247.2375 107.5775 247.875 107.875 C250 109 250 109 252 111 C254.51875841 111.14041859 256.97342528 110.99529909 259.4921875 110.875 C263.23123623 111.06137003 265.138364 112.10507352 267.71875 114.78515625 C270.10017184 118.90182144 269.74710204 123.40871838 269 128 C266.625 131.1875 266.625 131.1875 264 133 C263.34 133 262.68 133 262 133 C262 146.86 262 160.72 262 175 C323.05 175 384.1 175 447 175 C447 195.13 447 215.26 447 236 C407.07 236 367.14 236 326 236 C326 253.16 326 270.32 326 288 C360.65 288 395.3 288 431 288 C431 307.8 431 327.6 431 348 C396.35 348 361.7 348 326 348 C326 383.97 326 419.94 326 457 C304.88 457 283.76 457 262 457 C262 395.62 262 334.24 262 271 C266.95 269.35 271.9 267.7 277 266 C283.25930158 262.17487126 287.54530212 258.70758166 292 253 C292.66 253 293.32 253 294 253 C294.27585937 252.29359375 294.55171875 251.5871875 294.8359375 250.859375 C295.60362499 248.973646 296.42087065 247.10724408 297.2890625 245.265625 C303.07357968 232.20817687 302.53535957 220.11062802 297.484375 206.953125 C295.96682195 203.93399314 294.13183714 201.60557873 292 199 C292 198.34 292 197.68 292 197 C291.34 197 290.68 197 290 197 C287.375 194.625 287.375 194.625 285 192 C285 191.34 285 190.68 285 190 C284.2884375 189.7215625 283.576875 189.443125 282.84375 189.15625 C280.99385537 188.40409504 279.15877848 187.61402778 277.34375 186.78125 C276.4053125 186.3584375 275.466875 185.935625 274.5 185.5 C273.5821875 185.0771875 272.664375 184.654375 271.71875 184.21875 C266.32573255 182.4512905 260.60926412 181.86296371 255 181 C255 165.16 255 149.32 255 133 C253.35 132.34 251.7 131.68 250 131 C249.67 130.67 249.34 130.34 249 130 C246.44580698 129.88984571 243.91807064 129.84503796 241.36289978 129.84178162 C240.55350199 129.83684364 239.7441042 129.83190566 238.9101792 129.82681805 C236.17701944 129.81136532 233.4438833 129.80306152 230.71069336 129.79467773 C228.7598296 129.78510531 226.80896795 129.77509561 224.85810852 129.76467896 C219.54430101 129.73755492 214.23048455 129.71658609 208.91664577 129.69667697 C203.36991527 129.6748635 197.8232126 129.6474522 192.27650452 129.62062073 C181.76509392 129.5706309 171.25366793 129.52571549 160.74222714 129.48259836 C148.7786889 129.43327962 136.81517856 129.37834167 124.85166728 129.32291877 C100.23446957 129.2090022 75.61724629 129.10292625 51 129 C50.67 145.5 50.34 162 50 179 C29.87 179 9.74 179 -11 179 C-11 178.34 -11 177.68 -11 177 C-11.66 177 -12.32 177 -13 177 C-13 176.34 -13 175.68 -13 175 C-12.34 175 -11.68 175 -11 175 C-11 159.49 -11 143.98 -11 128 C-42.68 128 -74.36 128 -107 128 C-107 128.66 -107 129.32 -107 130 C-107.66 130 -108.32 130 -109 130 C-109 130.66 -109 131.32 -109 132 C-113.65649402 134.55356124 -117.98447479 134.31247389 -123 133 C-125.99452434 130.75410675 -126.81623122 129.55130633 -128 126 C-128.36945059 121.01241703 -128.18227193 117.95040654 -125 114 C-121.92483548 111.45200654 -119.87526925 110.87275047 -116 111.0625 C-112.65562227 111.20790773 -112.08093523 111.05166078 -109.0625 109.125 C-106.96116416 107.17402388 -106.96116416 107.17402388 -106 105 C-105.34 105 -104.68 105 -104 105 C-104 104.34 -104 103.68 -104 103 C-102.390625 101.4140625 -102.390625 101.4140625 -100.25 99.625 C-97.93096298 97.66242273 -95.74780716 95.7411705 -93.625 93.5625 C-92 92 -92 92 -90 92 C-90 91.34 -90 90.68 -90 90 C-88.49609375 88.484375 -88.49609375 88.484375 -86.4375 86.75 C-85.70789063 86.12867187 -84.97828125 85.50734375 -84.2265625 84.8671875 C-83.49179688 84.25101562 -82.75703125 83.63484375 -82 83 C-78.7388654 80.24467403 -75.52060044 77.52060044 -72.5 74.5 C-70.06368845 72.06368845 -67.53924945 69.84226269 -64.90625 67.625 C-63.53559366 66.45657165 -62.18345434 65.2662923 -60.84375 64.0625 C-60.1321875 63.423125 -59.420625 62.78375 -58.6875 62.125 C-58.03136719 61.52945313 -57.37523438 60.93390625 -56.69921875 60.3203125 C-55 59 -55 59 -53 59 C-53 58.34 -53 57.68 -53 57 C-52.34 57 -51.68 57 -51 57 C-51 56.34 -51 55.68 -51 55 C-49.3203125 53.2734375 -49.3203125 53.2734375 -47.125 51.375 C-46.40570313 50.74335937 -45.68640625 50.11171875 -44.9453125 49.4609375 C-43 48 -43 48 -41 48 C-41 47.34 -41 46.68 -41 46 C-40.34 46 -39.68 46 -39 46 C-39 45.34 -39 44.68 -39 44 C-37.6015625 42.58984375 -37.6015625 42.58984375 -35.625 40.9375 C-32.37058933 38.17182591 -29.16586167 35.36691808 -26 32.5 C-21.70405255 28.62300718 -17.36848754 24.79497102 -13 21 C-13.474375 20.566875 -13.94875 20.13375 -14.4375 19.6875 C-17.04502648 16.87137141 -17.13721715 14.16514618 -17.125 10.5 C-17.12886719 9.33984375 -17.12886719 9.33984375 -17.1328125 8.15625 C-16.94198903 5.0581748 -16.45303719 3.40773347 -14.125 1.3125 C-9.45815385 -0.64757538 -4.98951529 -0.71498447 0 0 Z M1 19 C2.41807378 23.47238653 4.11304374 27.71146306 6 32 C6.66 32 7.32 32 8 32 C8.09667969 32.84046875 8.19335938 33.6809375 8.29296875 34.546875 C9.08997805 38.43945081 10.5648836 41.71841532 12.3125 45.25 C12.95392805 46.58232189 13.5932537 47.91565801 14.23046875 49.25 C14.53774902 49.89324219 14.8450293 50.53648438 15.16162109 51.19921875 C16.57399117 54.23289425 17.7743103 57.34127633 18.97851562 60.46166992 C20.01201526 63.02985722 21.13426316 65.53675126 22.29296875 68.05078125 C25.46756628 74.99376083 28.48821353 82.00086139 31.51367188 89.00976562 C32.14692383 90.4725293 32.14692383 90.4725293 32.79296875 91.96484375 C33.1696167 92.8374585 33.54626465 93.71007324 33.93432617 94.60913086 C34.89896514 96.77332546 35.92113768 98.89085625 37 101 C37.33 101 37.66 101 38 101 C38 91.1 38 81.2 38 71 C41.85730459 69.7142318 45.49180882 69.86888541 49.51049805 69.88647461 C50.37900391 69.88632858 51.24750977 69.88618256 52.14233398 69.8860321 C55.01548757 69.88672924 57.88857648 69.89451239 60.76171875 69.90234375 C62.75283269 69.90420863 64.74394708 69.90563221 66.73506165 69.90663147 C71.97772486 69.9104511 77.22036041 69.92027668 82.4630127 69.93133545 C87.81192653 69.94156146 93.16084483 69.94613165 98.50976562 69.95117188 C109.00652258 69.96189942 119.50325899 69.97896923 130 70 C129.15822833 67.77121332 129.15822833 67.77121332 126.69677734 67.04272461 C125.6289502 66.68702393 124.56112305 66.33132324 123.4609375 65.96484375 C116.73495367 63.65941118 110.10208219 61.14558645 103.4765625 58.56640625 C102.43957214 58.16336273 101.40258179 57.76031921 100.33416748 57.34506226 C97.09717716 56.08574583 93.86101735 54.82431431 90.625 53.5625 C86.34684149 51.89588104 82.06817023 50.23058649 77.7890625 48.56640625 C76.7600885 48.165961 75.7311145 47.76551575 74.67095947 47.35293579 C68.86605833 45.09819023 63.04917016 42.88169874 57.2109375 40.71484375 C51.84523407 38.72211079 46.55434508 36.59126368 41.28271484 34.36181641 C34.82097427 31.68119846 28.29015865 29.17267041 21.76879883 26.64135742 C19.27788873 25.67405936 16.78832271 24.70335639 14.29882812 23.73242188 C12.71622441 23.11698541 11.13354501 22.50174352 9.55078125 21.88671875 C8.80613113 21.59617111 8.06148102 21.30562347 7.29426575 21.00627136 C4.23242545 19.60918068 4.23242545 19.60918068 1 19 Z M-14.33984375 29.21484375 C-14.86707031 29.78332031 -15.39429688 30.35179687 -15.9375 30.9375 C-19.888251 35.0385967 -24.25579512 38.48816731 -28.7421875 41.984375 C-31.23365064 43.8724426 -31.23365064 43.8724426 -32 47 C-32.66 47 -33.32 47 -34 47 C-34 47.66 -34 48.32 -34 49 C-34.556875 49.2475 -35.11375 49.495 -35.6875 49.75 C-39.38963695 51.75115511 -42.34477419 54.34477419 -45.3125 57.3125 C-48.22417508 60.22417508 -51.29035882 62.8808966 -54.42578125 65.546875 C-54.94527344 66.02640625 -55.46476562 66.5059375 -56 67 C-56 67.33 -56 67.66 -56 68 C-41.15 68 -26.3 68 -11 68 C-11 54.8 -11 41.6 -11 28 C-13.05449333 27.77609843 -13.05449333 27.77609843 -14.33984375 29.21484375 Z M-2 35 C-2 45.56 -2 56.12 -2 67 C0.76452033 68.38226016 3.0461363 68.09525387 6.125 68.0625 C7.22070312 68.05347656 8.31640625 68.04445312 9.4453125 68.03515625 C10.28835937 68.02355469 11.13140625 68.01195312 12 68 C11.18922534 64.14882034 9.72009933 60.57328874 8.25 56.9375 C7.98413086 56.27717773 7.71826172 55.61685547 7.44433594 54.93652344 C3.3830412 44.62938761 3.3830412 44.62938761 -2 35 Z M-55 76 C-55 86.56 -55 97.12 -55 108 C-54.34 108 -53.68 108 -53 108 C-53 107.34 -53 106.68 -53 106 C-52.34 106 -51.68 106 -51 106 C-51 105.34 -51 104.68 -51 104 C-50.44441406 103.773125 -49.88882813 103.54625 -49.31640625 103.3125 C-46.33468957 101.62302816 -44.3129083 99.46497875 -41.9375 97 C-39.34506045 94.31789712 -37.10816238 92.07210825 -34 90 C-34 89.34 -34 88.68 -34 88 C-33.34 88 -32.68 88 -32 88 C-30.81919103 86.85292843 -29.64433457 85.69877874 -28.5078125 84.5078125 C-26.25749394 82.25749394 -23.80600425 80.26168368 -21.35546875 78.234375 C-20.68451172 77.62335938 -20.68451172 77.62335938 -20 77 C-20 76.67 -20 76.34 -20 76 C-31.55 76 -43.1 76 -55 76 Z M4 76 C7.6472188 80.35887125 11.39864644 84.44906172 15.4609375 88.421875 C17 90 17 90 18.8125 92.4375 C19.204375 92.953125 19.59625 93.46875 20 94 C20.66 94 21.32 94 22 94 C22.28875 94.639375 22.5775 95.27875 22.875 95.9375 C23.82823451 98.15206079 23.82823451 98.15206079 26 99 C23.52429352 90.95395395 19.80957218 83.48308822 16 76 C12.04 76 8.08 76 4 76 Z M54 78 C55.65 79.65 57.3 81.3 59 83 C59.886875 83.928125 60.77375 84.85625 61.6875 85.8125 C63.71162149 88.22906662 63.71162149 88.22906662 66 88 C66.37705078 88.88171875 66.37705078 88.88171875 66.76171875 89.78125 C68.15449383 92.27682175 69.63171498 93.66530515 71.8125 95.5 C72.52664062 96.10585937 73.24078125 96.71171875 73.9765625 97.3359375 C75.53303709 98.61597259 77.1067317 99.87509018 78.6875 101.125 C81.31039928 103.25167509 83.61375109 105.61375109 86 108 C86.99 108.66 87.98 109.32 89 110 C89 99.44 89 88.88 89 78 C77.45 78 65.9 78 54 78 Z M108 78 C109.65 79.65 111.3 81.3 113 83 C113.96486328 83.99966797 113.96486328 83.99966797 114.94921875 85.01953125 C115.80966797 85.90705078 115.80966797 85.90705078 116.6875 86.8125 C117.55955078 87.71935547 117.55955078 87.71935547 118.44921875 88.64453125 C119.90769892 90.21936724 119.90769892 90.21936724 122 90 C122 90.66 122 91.32 122 92 C123.64587975 93.74275776 123.64587975 93.74275776 125.75 95.5 C126.79414063 96.41265625 126.79414063 96.41265625 127.859375 97.34375 C129.84460792 98.87976963 131.71872045 99.9723966 134 101 C134 101.66 134 102.32 134 103 C137.05558423 106.02517909 137.05558423 106.02517909 141 107 C141.66 108.32 142.32 109.64 143 111 C143.33 111 143.66 111 144 111 C144 100.11 144 89.22 144 78 C132.12 78 120.24 78 108 78 Z M162 78 C164.72473987 81.40592484 166.92781413 84.02256024 170.125 86.8125 C170.80820312 87.41707031 171.49140625 88.02164063 172.1953125 88.64453125 C173.89035618 90.20018456 173.89035618 90.20018456 176 90 C176.20882813 90.54398438 176.41765625 91.08796875 176.6328125 91.6484375 C178.51193429 94.88052699 181.12103758 97.15501931 183.875 99.625 C184.40480469 100.11484375 184.93460937 100.6046875 185.48046875 101.109375 C188.15720711 103.54035823 190.63748378 105.61925663 194 107 C194 107.66 194 108.32 194 109 C194.99 109.33 195.98 109.66 197 110 C197 99.44 197 88.88 197 78 C185.45 78 173.9 78 162 78 Z M-73.8125 87.625 C-76.22582525 89.70703206 -76.22582525 89.70703206 -76 92 C-76.57234375 92.2578125 -77.1446875 92.515625 -77.734375 92.78125 C-80.21128995 94.11365942 -82.1341166 95.65056118 -84.25 97.5 C-84.95640625 98.1084375 -85.6628125 98.716875 -86.390625 99.34375 C-88.23229504 100.85416368 -88.23229504 100.85416368 -88 103 C-88.66 103 -89.32 103 -90 103 C-90 103.66 -90 104.32 -90 105 C-90.99 105.33 -91.98 105.66 -93 106 C-93 106.66 -93 107.32 -93 108 C-93.58265625 108.25652344 -94.1653125 108.51304688 -94.765625 108.77734375 C-97.19710839 110.10785826 -98.81735553 111.58443013 -100.75 113.5625 C-101.67039062 114.49255859 -101.67039062 114.49255859 -102.609375 115.44140625 C-104.11095926 116.77622963 -104.11095926 116.77622963 -104 118 C-91.13 118 -78.26 118 -65 118 C-65 105.79 -65 93.58 -65 81 C-68.03678402 81 -71.74761677 85.69777565 -73.8125 87.625 Z M-12 81 C-12.78375 81.78375 -13.5675 82.5675 -14.375 83.375 C-17 86 -17 86 -20 88 C-20 88.66 -20 89.32 -20 90 C-20.58265625 90.25394531 -21.1653125 90.50789063 -21.765625 90.76953125 C-24.24188033 92.13320333 -25.80520626 93.64225203 -27.75 95.6875 C-31.13887635 99.18446433 -34.676576 102.36171917 -38.43359375 105.45703125 C-40.2595936 107.02220979 -40.2595936 107.02220979 -41 110 C-42.32338632 110.68620031 -43.65949948 111.34786461 -45 112 C-47.10127161 113.5772381 -49.02970067 115.25359832 -51 117 C-51 117.33 -51 117.66 -51 118 C-37.8 118 -24.6 118 -11 118 C-11 105.79 -11 93.58 -11 81 C-11.33 81 -11.66 81 -12 81 Z M206 82 C206 94.21 206 106.42 206 119 C218.87 119 231.74 119 245 119 C244.34 118.01 243.68 117.02 243 116 C242.34 116 241.68 116 241 116 C240.731875 115.360625 240.46375 114.72125 240.1875 114.0625 C239.11332248 111.66868314 239.11332248 111.66868314 236 111 C236 110.34 236 109.68 236 109 C234.34839219 107.32919719 234.34839219 107.32919719 232.25 105.625 C229.93096298 103.66242273 227.74780716 101.7411705 225.625 99.5625 C224.13544499 97.76896376 224.13544499 97.76896376 222 98 C222 97.34 222 96.68 222 96 C220.34839219 94.32919719 220.34839219 94.32919719 218.25 92.625 C215.93096298 90.66242273 213.74780716 88.7411705 211.625 86.5625 C210.13544499 84.76896376 210.13544499 84.76896376 208 85 C207.67 84.01 207.34 83.02 207 82 C206.67 82 206.34 82 206 82 Z M-2 83 C-2 94.88 -2 106.76 -2 119 C8.89 119 19.78 119 31 119 C31 118.34 31 117.68 31 117 C30.34 117 29.68 117 29 117 C29 116.34 29 115.68 29 115 C27.87460044 113.84049742 26.74096724 112.68801311 25.5703125 111.57421875 C23.0596783 109.05733919 20.82593153 106.30339014 18.55078125 103.57421875 C18.03902344 103.05472656 17.52726562 102.53523438 17 102 C16.34 102 15.68 102 15 102 C14.67 101.01 14.34 100.02 14 99 C13.34 99 12.68 99 12 99 C12 98.34 12 97.68 12 97 C11.34 97 10.68 97 10 97 C9.731875 96.4225 9.46375 95.845 9.1875 95.25 C7.97070811 92.94449957 6.69666121 90.97943808 5 89 C4.34 89 3.68 89 3 89 C3 88.34 3 87.68 3 87 C2.34 87 1.68 87 1 87 C1 86.34 1 85.68 1 85 C0.34 85 -0.32 85 -1 85 C-1.33 84.34 -1.66 83.68 -2 83 Z M99 83 C99 94.88 99 106.76 99 119 C112.2 119 125.4 119 139 119 C138.67 118.34 138.34 117.68 138 117 C137.34 117 136.68 117 136 117 C136 116.34 136 115.68 136 115 C134.35412025 113.25724224 134.35412025 113.25724224 132.25 111.5 C131.55390625 110.8915625 130.8578125 110.283125 130.140625 109.65625 C128.15539208 108.12023037 126.28127955 107.0276034 124 106 C124 105.34 124 104.68 124 104 C120.94441577 100.97482091 120.94441577 100.97482091 117 100 C116.34 98.68 115.68 97.36 115 96 C114.34 96 113.68 96 113 96 C112.67 95.01 112.34 94.02 112 93 C110.44152856 91.34100325 110.44152856 91.34100325 108.5625 89.8125 C107.94503906 89.28269531 107.32757813 88.75289063 106.69140625 88.20703125 C105.07499198 86.8063725 105.07499198 86.8063725 103 87 C103 86.34 103 85.68 103 85 C101.68 84.34 100.36 83.68 99 83 Z M152 83 C152 94.88 152 106.76 152 119 C165.53 119 179.06 119 193 119 C192.67 118.34 192.34 117.68 192 117 C191.34 117 190.68 117 190 117 C190 116.34 190 115.68 190 115 C188.30096977 113.48259024 186.53927277 112.034872 184.75 110.625 C181.94686688 108.40770687 179.26298803 106.2694248 176.765625 103.7109375 C175.17038719 101.76803411 175.17038719 101.76803411 173 102 C173 101.34 173 100.68 173 100 C172.34 100 171.68 100 171 100 C171 99.34 171 98.68 171 98 C170.34 98 169.68 98 169 98 C169 97.34 169 96.68 169 96 C165.94441577 92.97482091 165.94441577 92.97482091 162 92 C161.67 91.01 161.34 90.02 161 89 C159.44152856 87.34100325 159.44152856 87.34100325 157.5625 85.8125 C156.63630859 85.01779297 156.63630859 85.01779297 155.69140625 84.20703125 C154.07499198 82.8063725 154.07499198 82.8063725 152 83 Z M47 84 C47 95.55 47 107.1 47 119 C59.54 119 72.08 119 85 119 C84.67 118.34 84.34 117.68 84 117 C83.34 117 82.68 117 82 117 C82 116.34 82 115.68 82 115 C81.34 115 80.68 115 80 115 C80 114.34 80 113.68 80 113 C78.51953208 111.46323484 78.51953208 111.46323484 76.5625 109.875 C72.58378677 106.50621429 68.7229439 103.0296018 64.8828125 99.50390625 C63.14117116 97.79196607 63.14117116 97.79196607 61 98 C61 97.34 61 96.68 61 96 C59.41858579 94.36118548 59.41858579 94.36118548 57.375 92.6875 C56.70210937 92.11386719 56.02921875 91.54023437 55.3359375 90.94921875 C52.55838817 88.63149782 49.77907279 86.31589399 47 84 Z M-2 129 C-2 141.87 -2 154.74 -2 168 C-1.01 167.34 -0.02 166.68 1 166 C1 165.34 1 164.68 1 164 C1.66 164 2.32 164 3 164 C3 163.34 3 162.68 3 162 C3.66 162 4.32 162 5 162 C8.63633539 158.52001493 8.63633539 158.52001493 10 154 C10.66 154 11.32 154 12 154 C12 153.34 12 152.68 12 152 C12.99 151.67 13.98 151.34 15 151 C15 150.34 15 149.68 15 149 C15.66 149 16.32 149 17 149 C18.81067374 147.28668011 18.81067374 147.28668011 20.625 145.125 C21.57246094 144.04605469 21.57246094 144.04605469 22.5390625 142.9453125 C24.20017123 141.13893067 24.20017123 141.13893067 24 139 C24.66 139 25.32 139 26 139 C27.66666667 137.66666667 27.66666667 137.66666667 29 136 C29 135.34 29 134.68 29 134 C29.66 134 30.32 134 31 134 C31.66 132.35 32.32 130.7 33 129 C21.45 129 9.9 129 -2 129 Z M38.3984375 138.46875 C34.28452951 142.59854181 30.32883044 146.80495628 26.54296875 151.23828125 C25 153 25 153 23.30078125 154.60546875 C21.77263357 155.92591548 21.77263357 155.92591548 22 158 C21.360625 158.268125 20.72125 158.53625 20.0625 158.8125 C17.66868314 159.88667752 17.66868314 159.88667752 17 163 C16.34 163 15.68 163 15 163 C13.02 165.64 11.04 168.28 9 171 C19.56 171 30.12 171 41 171 C41 159.78 41 148.56 41 137 C39.76065598 136.8873521 39.76065598 136.8873521 38.3984375 138.46875 Z " fill="#FEFEFE" transform="translate(138,4)"/>
<path d="M0 0 C-0.64691925 3.26008374 -1.83507555 5.68025421 -3.546875 8.51953125 C-4.3203125 9.80633789 -4.3203125 9.80633789 -5.109375 11.11914062 C-5.65078125 12.00794922 -6.1921875 12.89675781 -6.75 13.8125 C-7.2759375 14.68970703 -7.801875 15.56691406 -8.34375 16.47070312 C-10.69314641 20.35825634 -13.07182219 24.18153166 -15.734375 27.86328125 C-17.51735074 30.33178042 -19.06572102 32.70109419 -20.5 35.375 C-20.90992188 36.12523437 -21.31984375 36.87546875 -21.7421875 37.6484375 C-22.61137293 39.27343636 -23.47010755 40.90405298 -24.3203125 42.5390625 C-24.96613281 43.75722656 -24.96613281 43.75722656 -25.625 45 C-26.00914062 45.7425 -26.39328125 46.485 -26.7890625 47.25 C-28 49 -28 49 -31 50 C-33.35546875 48.41015625 -33.35546875 48.41015625 -36.1875 46.0625 C-57.25373355 29.47422317 -84.57875747 22.98848553 -111 25 C-121.72677614 26.39273997 -131.79745547 29.79745547 -139.5625 37.5625 C-142.99626273 43.38496724 -142.59547827 50.03295604 -141 56.4375 C-140.505 58.2009375 -140.505 58.2009375 -140 60 C-139.34 60 -138.68 60 -138 60 C-137.26652344 60.75152344 -136.53304687 61.50304687 -135.77734375 62.27734375 C-132.84477096 65.15217249 -130.22709397 66.7365578 -126.5625 68.5625 C-125.47066406 69.12066406 -124.37882813 69.67882812 -123.25390625 70.25390625 C-113.84303656 74.42949543 -103.42959011 76.43547292 -93.45874023 78.83886719 C-61.53937945 86.53754694 -30.38104987 96.6692363 -7 121 C-7 121.66 -7 122.32 -7 123 C-6.34 123 -5.68 123 -5 123 C6.63271641 136.77172975 11.17715207 152.45073461 11.1875 170.125 C11.19974609 171.20265625 11.21199219 172.2803125 11.22460938 173.390625 C11.2550802 190.25114751 6.45285928 203.11834518 -3 217 C-3.66 217.99 -4.32 218.98 -5 220 C-5.66 220 -6.32 220 -7 220 C-7.226875 220.556875 -7.45375 221.11375 -7.6875 221.6875 C-16.91013203 237.93689929 -40.85611565 248.27031339 -57.92504883 253.0246582 C-58.73353271 253.243396 -59.5420166 253.46213379 -60.375 253.6875 C-61.48814575 253.99143677 -61.48814575 253.99143677 -62.6237793 254.30151367 C-75.00133227 257.4859072 -87.38978177 258.38303329 -100.125 258.3125 C-101.20915695 258.30876877 -101.20915695 258.30876877 -102.31521606 258.30496216 C-114.10185805 258.24247703 -125.47833803 257.61796056 -137 255 C-137.98452148 254.77957031 -138.96904297 254.55914062 -139.98339844 254.33203125 C-166.01155936 248.32002708 -204.92228068 236.2405494 -221 213 C-220.65066406 212.52949219 -220.30132813 212.05898438 -219.94140625 211.57421875 C-219.25884766 210.64029297 -219.25884766 210.64029297 -218.5625 209.6875 C-218.11003906 209.07261719 -217.65757812 208.45773437 -217.19140625 207.82421875 C-215.82663692 205.90322899 -215.82663692 205.90322899 -215 203 C-214.34 203 -213.68 203 -213 203 C-212.59140747 201.89531372 -212.59140747 201.89531372 -212.17456055 200.76831055 C-211.06150123 198.14495167 -209.82604591 196.04217417 -208.20703125 193.70703125 C-207.66216064 192.91627197 -207.11729004 192.1255127 -206.5559082 191.31079102 C-205.9805835 190.48635498 -205.40525879 189.66191895 -204.8125 188.8125 C-204.22750732 187.96550537 -203.64251465 187.11851074 -203.03979492 186.24584961 C-199.48656673 181.10814703 -195.90911178 175.98714074 -192.26953125 170.91015625 C-191.00098843 169.00148721 -189.97744828 167.07070796 -189 165 C-186.03824877 165.61277612 -184.61941217 166.25372522 -182 168 C-182 168.66 -182 169.32 -182 170 C-181.47277344 170.2371875 -180.94554687 170.474375 -180.40234375 170.71875 C-177.91816996 172.04364269 -175.67858769 173.5973031 -173.38427734 175.22363281 C-148.77395381 192.46603048 -117.24232868 203.80143536 -86.94140625 198.8203125 C-76.21025541 196.7378735 -65.53645751 193.09841899 -58.6015625 184.20703125 C-55.90595924 179.87686006 -54.3721281 175.78468376 -55.51171875 170.73046875 C-56.77650289 166.58813338 -57.88911313 164.03224085 -61 161 C-61 160.34 -61 159.68 -61 159 C-61.79857422 158.60361328 -61.79857422 158.60361328 -62.61328125 158.19921875 C-64.35027892 157.3264556 -66.07541173 156.42995658 -67.79296875 155.51953125 C-81.46440462 148.64448237 -96.16448784 145.20091353 -110.94921875 141.5078125 C-137.83926012 134.76426411 -166.36894166 125.46748455 -187 106 C-187 105.34 -187 104.68 -187 104 C-187.66 104 -188.32 104 -189 104 C-190.7265625 102.1015625 -190.7265625 102.1015625 -192.625 99.625 C-193.57246094 98.40683594 -193.57246094 98.40683594 -194.5390625 97.1640625 C-196 95 -196 95 -196 93 C-196.66 93 -197.32 93 -198 93 C-208.27238269 72.96181787 -214.13801108 52.54538685 -208 30 C-203.97114752 17.75440891 -198.43929749 5.99778197 -189 -3 C-188.113125 -3.928125 -187.22625 -4.85625 -186.3125 -5.8125 C-184 -8 -184 -8 -182 -8 C-182 -8.66 -182 -9.32 -182 -10 C-180.00931798 -11.50604757 -178.04315292 -12.85808236 -175.9375 -14.1875 C-175.30626221 -14.58678711 -174.67502441 -14.98607422 -174.0246582 -15.39746094 C-120.78076474 -48.33887484 -47.49266144 -37.93194564 0 0 Z " fill="#FEFEFE" transform="translate(822,208)"/>
<path d="M0 0 C1.1854969 -0.00021904 1.1854969 -0.00021904 2.39494324 -0.0004425 C5.01381145 0.00025556 7.63260902 0.008043 10.25146484 0.01586914 C12.06464601 0.0177337 13.87782767 0.01915742 15.69100952 0.02015686 C20.46843857 0.02397907 25.24583733 0.03380685 30.02325439 0.04486084 C34.89619538 0.05508132 39.76914124 0.05965585 44.64208984 0.06469727 C54.20720734 0.07542936 63.77230232 0.09250225 73.33740234 0.11352539 C71.91008241 3.04199215 70.46811323 5.62769603 68.33740234 8.11352539 C67.67740234 8.11352539 67.01740234 8.11352539 66.33740234 8.11352539 C66.08861328 8.68071289 65.83982422 9.24790039 65.58349609 9.83227539 C64.14193932 12.47136365 62.43837404 14.40180203 60.39990234 16.61352539 C59.60326172 17.48364258 58.80662109 18.35375977 57.98583984 19.25024414 C57.11185547 20.19512695 56.23787109 21.14000977 55.33740234 22.11352539 C53.88041123 23.6931739 52.42449563 25.27379314 50.9699707 26.85571289 C49.58857101 28.35683855 48.20331248 29.85441039 46.81787109 31.35180664 C44.31352056 34.07026956 44.31352056 34.07026956 42.13818359 36.96899414 C41.54392578 37.67668945 40.94966797 38.38438477 40.33740234 39.11352539 C39.67740234 39.11352539 39.01740234 39.11352539 38.33740234 39.11352539 C37.67740234 40.76352539 37.01740234 42.41352539 36.33740234 44.11352539 C35.67740234 44.11352539 35.01740234 44.11352539 34.33740234 44.11352539 C33.93448975 45.00080322 33.93448975 45.00080322 33.5234375 45.90600586 C32.33239276 48.12284954 31.10250201 49.63018346 29.36083984 51.43383789 C28.77592773 52.04735107 28.19101562 52.66086426 27.58837891 53.29296875 C26.65977051 54.25601929 26.65977051 54.25601929 25.71240234 55.23852539 C20.75081835 60.44717239 16.10210299 65.68897996 11.79052734 71.45336914 C11.31099609 72.0012207 10.83146484 72.54907227 10.33740234 73.11352539 C9.67740234 73.11352539 9.01740234 73.11352539 8.33740234 73.11352539 C8.11310547 73.65750977 7.88880859 74.20149414 7.65771484 74.76196289 C5.93368228 77.8325771 3.62584694 80.2087161 1.21240234 82.73852539 C-3.17866219 87.41131912 -7.23214121 92.22834805 -11.10400391 97.34790039 C-11.61833984 97.93055664 -12.13267578 98.51321289 -12.66259766 99.11352539 C-13.32259766 99.11352539 -13.98259766 99.11352539 -14.66259766 99.11352539 C-15.15759766 100.59852539 -15.15759766 100.59852539 -15.66259766 102.11352539 C-16.32259766 102.11352539 -16.98259766 102.11352539 -17.66259766 102.11352539 C-17.95134766 102.71165039 -18.24009766 103.30977539 -18.53759766 103.92602539 C-19.66259766 106.11352539 -19.66259766 106.11352539 -21.66259766 109.11352539 C-22.32259766 109.11352539 -22.98259766 109.11352539 -23.66259766 109.11352539 C-23.87916016 109.64848633 -24.09572266 110.18344727 -24.31884766 110.73461914 C-26.14576987 113.96890877 -28.62143579 116.50025418 -31.16259766 119.17602539 C-33.87390284 122.05197056 -36.46106248 124.81122263 -38.66259766 128.11352539 C-39.32259766 128.11352539 -39.98259766 128.11352539 -40.66259766 128.11352539 C-40.93072266 128.71165039 -41.19884766 129.30977539 -41.47509766 129.92602539 C-42.64753233 132.08577347 -43.85629047 133.47142795 -45.66259766 135.11352539 C-44.65814103 137.35423633 -43.7850478 138.99107524 -42.03759766 140.73852539 C-41.58384766 141.19227539 -41.13009766 141.64602539 -40.66259766 142.11352539 C-40.66259766 142.77352539 -40.66259766 143.43352539 -40.66259766 144.11352539 C-40.00259766 144.11352539 -39.34259766 144.11352539 -38.66259766 144.11352539 C-37.07726063 145.82685293 -35.56718551 147.61041586 -34.10009766 149.42602539 C-33.29443359 150.4121582 -32.48876953 151.39829102 -31.65869141 152.41430664 C-29.66259766 155.11352539 -29.66259766 155.11352539 -28.66259766 158.11352539 C-28.00259766 158.11352539 -27.34259766 158.11352539 -26.66259766 158.11352539 C-26.66259766 158.77352539 -26.66259766 159.43352539 -26.66259766 160.11352539 C-26.00259766 160.11352539 -25.34259766 160.11352539 -24.66259766 160.11352539 C-23.26933812 161.6659288 -21.94879637 163.28382524 -20.66259766 164.92602539 C-17.36375684 169.05489712 -13.98825412 173.02920218 -10.41259766 176.92602539 C-0.66259766 187.55686651 -0.66259766 187.55686651 -0.66259766 190.11352539 C-0.00259766 190.11352539 0.65740234 190.11352539 1.33740234 190.11352539 C2.73066188 191.6659288 4.05120363 193.28382524 5.33740234 194.92602539 C9.49746435 200.14808697 13.88794537 205.04157484 18.46630859 209.89868164 C20.33740234 212.11352539 20.33740234 212.11352539 20.33740234 214.11352539 C20.99740234 214.11352539 21.65740234 214.11352539 22.33740234 214.11352539 C23.79400211 215.72735487 25.17789186 217.40715755 26.52490234 219.11352539 C29.93447506 223.38928405 33.42731411 227.52451758 37.12255859 231.55493164 C38.33740234 233.11352539 38.33740234 233.11352539 38.33740234 235.11352539 C39.32740234 235.44352539 40.31740234 235.77352539 41.33740234 236.11352539 C46.33740234 241.57864167 46.33740234 241.57864167 46.33740234 244.11352539 C46.99740234 244.11352539 47.65740234 244.11352539 48.33740234 244.11352539 C48.33740234 244.77352539 48.33740234 245.43352539 48.33740234 246.11352539 C48.99740234 246.11352539 49.65740234 246.11352539 50.33740234 246.11352539 C51.70458984 247.72290039 51.70458984 247.72290039 53.21240234 249.86352539 C54.95998666 252.2878703 56.59072821 254.36685126 58.71240234 256.48852539 C59.24865234 257.02477539 59.78490234 257.56102539 60.33740234 258.11352539 C60.33740234 258.77352539 60.33740234 259.43352539 60.33740234 260.11352539 C60.99740234 260.11352539 61.65740234 260.11352539 62.33740234 260.11352539 C63.57175486 261.81493021 64.8006686 263.52080127 65.98974609 265.25415039 C67.84828555 267.81839613 70.0732263 269.9032583 72.33740234 272.11352539 C73.64567499 273.47273489 74.93659047 274.84880174 76.21240234 276.23852539 C76.82857422 276.90110352 77.44474609 277.56368164 78.07958984 278.24633789 C78.49466797 278.86250977 78.90974609 279.47868164 79.33740234 280.11352539 C79.00740234 281.10352539 78.67740234 282.09352539 78.33740234 283.11352539 C67.6189008 283.14501978 56.90113921 283.13892645 46.18270683 283.08505917 C41.20541527 283.06122148 36.22879311 283.05025381 31.25146484 283.06884766 C26.44645135 283.0863218 21.64263959 283.06979419 16.83777237 283.0298481 C15.00621741 283.02056545 13.17455828 283.02346333 11.34304428 283.03883171 C8.77325746 283.05829854 6.2072525 283.03416603 3.63769531 283 C2.88315567 283.01581619 2.12861603 283.03163239 1.35121155 283.04792786 C-1.78688611 282.96782677 -4.0741774 282.60657492 -6.50893784 280.56643867 C-10.66259766 275.88901072 -10.66259766 275.88901072 -10.66259766 273.11352539 C-11.32259766 273.11352539 -11.98259766 273.11352539 -12.66259766 273.11352539 C-14.09809491 271.520183 -15.46087092 269.86101457 -16.78759766 268.17602539 C-20.44685683 263.58564192 -24.23726924 259.19385017 -28.22900391 254.89086914 C-29.66259766 253.11352539 -29.66259766 253.11352539 -29.66259766 251.11352539 C-30.32259766 251.11352539 -30.98259766 251.11352539 -31.66259766 251.11352539 C-32.65259766 248.63852539 -32.65259766 248.63852539 -33.66259766 246.11352539 C-34.32259766 246.11352539 -34.98259766 246.11352539 -35.66259766 246.11352539 C-37.01395269 244.58081968 -38.29513652 242.98575766 -39.53759766 241.36352539 C-42.0853064 238.05053532 -44.67184467 235.03103545 -47.66259766 232.11352539 C-52.66259766 226.61352539 -52.66259766 226.61352539 -52.66259766 224.11352539 C-53.32259766 224.11352539 -53.98259766 224.11352539 -54.66259766 224.11352539 C-55.06478516 222.90696289 -55.06478516 222.90696289 -55.47509766 221.67602539 C-55.86697266 220.83040039 -56.25884766 219.98477539 -56.66259766 219.11352539 C-57.65259766 218.78352539 -58.64259766 218.45352539 -59.66259766 218.11352539 C-64.66259766 212.64840911 -64.66259766 212.64840911 -64.66259766 210.11352539 C-65.32259766 210.11352539 -65.98259766 210.11352539 -66.66259766 210.11352539 C-68.22119141 208.38305664 -68.22119141 208.38305664 -70.10009766 205.92602539 C-73.91931958 201.01359499 -77.8952021 196.27251941 -81.98071289 191.58154297 C-84.28817384 188.89509076 -86.28430573 186.39290962 -87.66259766 183.11352539 C-88.32259766 183.11352539 -88.98259766 183.11352539 -89.66259766 183.11352539 C-90.00291016 183.91790039 -90.00291016 183.91790039 -90.35009766 184.73852539 C-92.11829855 187.938127 -94.19929968 190.40389762 -96.66259766 193.11352539 C-97.32259766 193.11352539 -97.98259766 193.11352539 -98.66259766 193.11352539 C-99.06478516 194.07258789 -99.06478516 194.07258789 -99.47509766 195.05102539 C-100.66259766 197.11352539 -100.66259766 197.11352539 -103.66259766 198.11352539 C-103.84834064 186.79547038 -103.99029809 175.47778066 -104.07709503 164.15850925 C-104.1187639 158.90183563 -104.17523905 153.64620825 -104.26611328 148.39013672 C-104.35333752 143.31313304 -104.40093419 138.23713256 -104.4216156 133.15943718 C-104.43634442 131.22690991 -104.46510791 129.2944347 -104.50843811 127.36233711 C-104.87516487 110.32510798 -104.87516487 110.32510798 -99.75927734 104.53222656 C-98.42167676 103.35996738 -97.05931354 102.21468462 -95.66259766 101.11352539 C-94.2316123 99.37521432 -92.81217604 97.62722173 -91.41259766 95.86352539 C-87.97808381 91.62367726 -84.3889568 87.59379418 -80.66259766 83.61352539 C-74.59104489 77.12616559 -68.89753558 70.39506088 -63.53759766 63.30102539 C-62.91884766 62.57915039 -62.30009766 61.85727539 -61.66259766 61.11352539 C-61.00259766 61.11352539 -60.34259766 61.11352539 -59.66259766 61.11352539 C-59.41509766 60.56180664 -59.16759766 60.01008789 -58.91259766 59.44165039 C-57.42025292 56.66215832 -55.62587242 54.33205469 -53.66259766 51.86352539 C-52.96134766 50.97149414 -52.26009766 50.07946289 -51.53759766 49.16040039 C-50.91884766 48.48493164 -50.30009766 47.80946289 -49.66259766 47.11352539 C-49.00259766 47.11352539 -48.34259766 47.11352539 -47.66259766 47.11352539 C-47.32228516 46.03071289 -47.32228516 46.03071289 -46.97509766 44.92602539 C-45.39332957 41.53652236 -43.36358395 39.68888442 -40.66259766 37.11352539 C-39.75489497 36.0190953 -38.8588587 34.91487807 -37.97509766 33.80102539 C-37.21197266 32.91415039 -36.44884766 32.02727539 -35.66259766 31.11352539 C-35.00259766 31.11352539 -34.34259766 31.11352539 -33.66259766 31.11352539 C-32.67259766 28.63852539 -32.67259766 28.63852539 -31.66259766 26.11352539 C-31.00259766 26.11352539 -30.34259766 26.11352539 -29.66259766 26.11352539 C-29.30875 25.28208008 -29.30875 25.28208008 -28.94775391 24.43383789 C-27.34995216 21.54905297 -25.34408756 19.40180507 -23.10009766 16.98852539 C-20.02540579 13.7984503 -20.02540579 13.7984503 -17.66259766 10.11352539 C-17.00259766 10.11352539 -16.34259766 10.11352539 -15.66259766 10.11352539 C-15.19853516 9.18540039 -15.19853516 9.18540039 -14.72509766 8.23852539 C-14.03759766 6.86352539 -13.35009766 5.48852539 -12.66259766 4.11352539 C-12.00259766 4.11352539 -11.34259766 4.11352539 -10.66259766 4.11352539 C-10.33259766 3.12352539 -10.00259766 2.13352539 -9.66259766 1.11352539 C-6.58990063 -0.42282312 -3.37058647 -0.01615286 0 0 Z " fill="#FEFEFE" transform="translate(300.66259765625,178.886474609375)"/>
<path d="M0 0 C13.77256326 0.48071774 23.82665554 3.93836412 33.71484375 13.69140625 C35.26715353 15.39381214 36.645197 17.13714588 38 19 C38.69609375 19.93005859 38.69609375 19.93005859 39.40625 20.87890625 C45.41937683 30.09087671 46.0301172 42.67559235 43.84765625 53.2265625 C42.4557977 57.78056974 40.38250482 61.88972451 38 66 C37.34 66 36.68 66 36 66 C35.773125 66.556875 35.54625 67.11375 35.3125 67.6875 C30.35173373 76.42789771 21.66775716 80.67302799 12.39453125 83.26953125 C1.54530663 85.60417452 -8.92046075 83.85969049 -18.6796875 78.5390625 C-22.46472728 76.0942991 -26.12218032 73.50343265 -29 70 C-29 69.34 -29 68.68 -29 68 C-29.66 68 -30.32 68 -31 68 C-35 61.25 -35 61.25 -35 59 C-33.39482903 59.08733576 -31.79078338 59.19552224 -30.1875 59.3125 C-28.84751953 59.39951172 -28.84751953 59.39951172 -27.48046875 59.48828125 C-24.67328075 60.06740192 -23.69302154 60.7220142 -22 63 C-22 63.66 -22 64.32 -22 65 C-21.34 65 -20.68 65 -20 65 C-20 65.66 -20 66.32 -20 67 C-19.13375 67.43119141 -19.13375 67.43119141 -18.25 67.87109375 C-16.82907497 68.58402315 -15.41184749 69.30441488 -14 70.03515625 C-13.01 70.54369141 -13.01 70.54369141 -12 71.0625 C-11.01 71.57490234 -11.01 71.57490234 -10 72.09765625 C-2.39182761 75.53024965 7.02589688 74.9822837 14.8125 72.4375 C20.36287249 70.17021753 26.24022817 66.51954365 29 61 C29.66 61 30.32 61 31 61 C31.13277344 60.42378906 31.26554687 59.84757812 31.40234375 59.25390625 C31.98255279 57.06579764 32.74634425 55.04688805 33.5625 52.9375 C36.36404211 44.53287368 35.82185772 35.98218254 32 28 C28.88013266 22.13980235 28.88013266 22.13980235 24 18 C24 17.34 24 16.68 24 16 C23.319375 15.731875 22.63875 15.46375 21.9375 15.1875 C19.90577105 14.36616277 17.90557269 13.46395397 15.9375 12.5 C10.89450954 10.29229084 5.41191997 9.75535829 0 9 C0 6.03 0 3.06 0 0 Z " fill="#FEFEFE" transform="translate(392,188)"/>
<path d="M0 0 C9.15026345 1.30718049 15.06184619 4.96541013 20.78515625 12.2265625 C25.15084894 18.59963157 26.60894371 25.81146591 25.71484375 33.4296875 C23.70171976 43.47839042 18.93150371 49.91233594 10.609375 55.66796875 C8 57 8 57 0 59 C0 39.53 0 20.06 0 0 Z " fill="#FEFEFE" transform="translate(399,201)"/>
<path d="M0 0 C0.99 0 1.98 0 3 0 C15.87300179 17.7514608 12.79268873 39.20415363 12 60 C4.74 60 -2.52 60 -10 60 C-10.18574473 54.59276442 -10.34424344 49.19697264 -10.43945312 43.7890625 C-10.47920421 41.95794812 -10.53342832 40.1270793 -10.60351562 38.296875 C-11.11029809 24.70318075 -9.1005019 15.61115509 -2 4 C-1.31637675 2.67528061 -0.63966863 1.34649407 0 0 Z " fill="#FEFEFE" transform="translate(158,257)"/>
<path d="M0 0 C7.26 0 14.52 0 22 0 C22.18583828 5.53126978 22.34431285 11.05132089 22.43945312 16.58325195 C22.47918007 18.45602494 22.53338418 20.32855846 22.60351562 22.20043945 C23.09155076 35.58193232 21.81619822 46.74039615 14 58 C11.86730957 58.69114685 11.86730957 58.69114685 10 59 C8.70768774 56.58367661 7.41612809 54.16695604 6.125 51.75 C5.76019531 51.06808594 5.39539063 50.38617188 5.01953125 49.68359375 C4.66503906 49.01972656 4.31054688 48.35585937 3.9453125 47.671875 C3.62062988 47.0644043 3.29594727 46.45693359 2.96142578 45.83105469 C2.64415527 45.22680664 2.32688477 44.62255859 2 44 C1.65485352 43.38733276 1.30970703 42.77466553 0.95410156 42.14343262 C-0.07051838 39.84157724 -0.24288242 38.37542305 -0.22705078 35.87402344 C-0.22689972 35.07349548 -0.22674866 34.27296753 -0.22659302 33.44818115 C-0.21110916 32.16672211 -0.21110916 32.16672211 -0.1953125 30.859375 C-0.1924826 29.97719299 -0.18965271 29.09501099 -0.18673706 28.18609619 C-0.17555961 25.37392501 -0.15045951 22.5620746 -0.125 19.75 C-0.11496705 17.84115044 -0.10584175 15.93229588 -0.09765625 14.0234375 C-0.07733146 9.34873592 -0.03817834 4.67472619 0 0 Z " fill="#FEFEFE" transform="translate(148,189)"/>
<path d="M0 0 C0.99 0 1.98 0 3 0 C3.55429688 1.18078125 4.10859375 2.3615625 4.6796875 3.578125 C5.41143263 5.13542874 6.14320489 6.69271974 6.875 8.25 C7.23980469 9.02730469 7.60460937 9.80460937 7.98046875 10.60546875 C8.33496094 11.35957031 8.68945312 12.11367188 9.0546875 12.890625 C9.37937012 13.58188477 9.70405273 14.27314453 10.03857422 14.98535156 C10.9422747 16.99370785 10.9422747 16.99370785 12.109375 18.69921875 C13.52989724 22.36890121 13.24364529 26.02422444 13.1953125 29.921875 C13.1924826 30.78186096 13.18965271 31.64184692 13.18673706 32.52789307 C13.1755615 35.26873821 13.15046179 38.00925398 13.125 40.75 C13.1149668 42.61067236 13.10584155 44.47134985 13.09765625 46.33203125 C13.07733414 50.88824915 13.03818081 55.44375682 13 60 C5.74 60 -1.52 60 -9 60 C-9.18544498 54.28983986 -9.3440586 48.59043177 -9.43945312 42.87963867 C-9.47927252 40.94470523 -9.53355153 39.01000582 -9.60351562 37.07592773 C-10.08600456 23.37820883 -8.504543 14.4940846 -1 3 C-0.67 2.01 -0.34 1.02 0 0 Z " fill="#FEFEFE" transform="translate(157,392)"/>
<path d="M0 0 C7.26 0 14.52 0 22 0 C23.80606985 43.63553944 23.80606985 43.63553944 13 57 C10.85253906 57.68237305 10.85253906 57.68237305 9 58 C0.44284543 45.00080001 -1.21028619 34.806465 -0.5625 19.4375 C-0.51721257 17.53981068 -0.47617354 15.64201505 -0.43945312 13.74414062 C-0.34944787 9.15787294 -0.17337071 4.58683243 0 0 Z " fill="#FEFEFE" transform="translate(148,325)"/>
<path d="M0 0 C5.28 0 10.56 0 16 0 C16 17.16 16 34.32 16 52 C13 51 13 51 11.16796875 47.5703125 C10.49710136 46.09336022 9.83760733 44.6112071 9.1875 43.125 C6.93007528 38.03687797 4.6674905 33.40949928 1.5 28.8125 C-3.01849427 20.96329993 -1.93516616 9.77415551 -1 1 C-0.67 0.67 -0.34 0.34 0 0 Z " fill="#FEFEFE" transform="translate(172,391)"/>
<path d="M0 0 C0.99 0 1.98 0 3 0 C3 16.17 3 32.34 3 49 C-2.28 49 -7.56 49 -13 49 C-15.45353216 46.54646784 -14.6107999 40.30378637 -14.6706543 36.91577148 C-14.47276218 27.81526026 -10.7713204 21.51828954 -6.12011719 13.93066406 C-3.56630241 9.52884034 -1.8182421 4.7420485 0 0 Z " fill="#FEFEFE" transform="translate(185,334)"/>
<path d="M0 0 C5.28 0 10.56 0 16 0 C17.07447031 15.05584934 16.35297451 25.39542573 8.12011719 38.18115234 C6.4684061 40.86320282 5.20363935 43.68258188 3.9375 46.5625 C3.55464844 47.43003906 3.17179688 48.29757812 2.77734375 49.19140625 C2.52082031 49.78824219 2.26429688 50.38507813 2 51 C1.34 51 0.68 51 0 51 C0 34.17 0 17.34 0 0 Z " fill="#FEFEFE" transform="translate(130,257)"/>
<path d="M0 0 C5.28 0 10.56 0 16 0 C16.1082077 3.70911942 16.18742278 7.41506456 16.25 11.125 C16.28351563 12.17171875 16.31703125 13.2184375 16.3515625 14.296875 C16.43130013 20.59614809 16.02790179 23.93575984 12 29 C10.31802207 32.17225723 8.82468284 35.43144897 7.3125 38.6875 C6.90966797 39.54150391 6.50683594 40.39550781 6.09179688 41.27539062 C4.58009218 44.49884133 3.12695259 47.61914222 2 51 C1.34 51 0.68 51 0 51 C0 34.17 0 17.34 0 0 Z " fill="#FEFEFE" transform="translate(130,391)"/>
<path d="M0 0 C0.66 0 1.32 0 2 0 C2.76183594 1.64935547 2.76183594 1.64935547 3.5390625 3.33203125 C4.0350293 4.39683716 4.0350293 4.39683716 4.54101562 5.4831543 C5.27086257 7.05150332 5.99603947 8.62203311 6.71679688 10.19458008 C8.70144663 14.46728512 10.83207324 18.29411407 13.5 22.1875 C18.17220926 30.26915927 16.42850925 41.00924121 16 50 C10.72 50 5.44 50 0 50 C0 33.5 0 17 0 0 Z " fill="#FEFEFE" transform="translate(130,198)"/>
<path d="M0 0 C0.99 0 1.98 0 3 0 C3 15.51 3 31.02 3 47 C-2.28 47 -7.56 47 -13 47 C-15.38824672 44.61175328 -14.66788817 38.97751229 -14.74316406 35.70532227 C-14.51794151 26.23028353 -10.05299818 19.1519383 -5.26757812 11.23388672 C-3.21734869 7.62071274 -1.59832478 3.83021464 0 0 Z " fill="#FEFEFE" transform="translate(185,201)"/>
<path d="M0 0 C5.28 0 10.56 0 16 0 C16 15.84 16 31.68 16 48 C15.01 48 14.02 48 13 48 C12.74605469 47.40832031 12.49210938 46.81664062 12.23046875 46.20703125 C10.05769403 41.20855713 10.05769403 41.20855713 7.4375 36.4375 C5.83999157 33.72868136 4.84977202 31.03266026 3.84375 28.0625 C3.05456386 25.89599649 3.05456386 25.89599649 1.453125 23.890625 C-0.69824521 19.6110176 -0.6088976 15.48029013 -0.75 10.75 C-0.79253906 9.82703125 -0.83507812 8.9040625 -0.87890625 7.953125 C-1.07483857 3.01853325 -1.07483857 3.01853325 -1 1 C-0.67 0.67 -0.34 0.34 0 0 Z " fill="#FEFEFE" transform="translate(172,257)"/>
<path d="M0 0 C0.66 0 1.32 0 2 0 C2.76183594 1.64935547 2.76183594 1.64935547 3.5390625 3.33203125 C4.0350293 4.39707886 4.0350293 4.39707886 4.54101562 5.48364258 C5.27036486 7.05059355 5.99555568 8.61948609 6.71679688 10.19018555 C8.71294716 14.48146703 10.8614367 18.37359211 13.5 22.3125 C17.89820988 29.94398849 16.44909284 39.50881865 16 48 C10.72 48 5.44 48 0 48 C0 32.16 0 16.32 0 0 Z " fill="#FEFEFE" transform="translate(130,335)"/>
<path d="M0 0 C1.98 0 3.96 0 6 0 C8.64 4.62 11.28 9.24 14 14 C14.33 9.38 14.66 4.76 15 0 C16.65 0 18.3 0 20 0 C20 8.25 20 16.5 20 25 C18.02 25 16.04 25 14 25 C11.8828125 22.59375 11.8828125 22.59375 10.125 19.5 C9.52945312 18.4790625 8.93390625 17.458125 8.3203125 16.40625 C7.88460938 15.6121875 7.44890625 14.818125 7 14 C6.67 17.63 6.34 21.26 6 25 C4.02 25 2.04 25 0 25 C0 16.75 0 8.5 0 0 Z " fill="#FEFEFE" transform="translate(327,471)"/>
<path d="M0 0 C0.99 0 1.98 0 3 0 C3 0.99 3 1.98 3 3 C3.66 3 4.32 3 5 3 C7.85207465 8.60269209 10.53568768 14.21422325 13 20 C14.06038457 22.01240867 15.12822465 24.01799357 16.23046875 26.0078125 C17.16712014 28.43264605 17.12930531 30.42281131 17 33 C14.35409986 33.02684679 11.70846904 33.04676357 9.0625 33.0625 C8.30775391 33.07087891 7.55300781 33.07925781 6.77539062 33.08789062 C4.85005687 33.09652441 2.92464419 33.05224333 1 33 C0 32 0 32 -0.11352539 28.94897461 C-0.11336634 27.60008729 -0.10767612 26.25119386 -0.09765625 24.90234375 C-0.0962413 24.19348526 -0.09482635 23.48462677 -0.09336853 22.75428772 C-0.08775443 20.48198288 -0.07519963 18.20977525 -0.0625 15.9375 C-0.05748681 14.40039204 -0.05292359 12.86328255 -0.04882812 11.32617188 C-0.03778042 7.55074358 -0.02050641 3.77538829 0 0 Z " fill="#FEFEFE" transform="translate(171,284)"/>
<path d="M0 0 C3.5578125 -0.12375 3.5578125 -0.12375 7.1875 -0.25 C7.92508545 -0.28641602 8.6626709 -0.32283203 9.42260742 -0.36035156 C12.98293795 -0.41997087 14.89022635 -0.06859021 17.92578125 1.828125 C21.72816468 5.80952836 21.27093597 10.11092478 21.22265625 15.33203125 C20.94897844 18.61136363 20.16243694 20.51720203 18 23 C14.31602884 25.45598077 11.55276192 25.2271532 7.3125 25.125 C4.899375 25.08375 2.48625 25.0425 0 25 C0 16.75 0 8.5 0 0 Z M6 4 C6 9.61 6 15.22 6 21 C11.51557405 21.53048214 11.51557405 21.53048214 13.84765625 19.84375 C15.42439752 17.32096397 15.43352106 15.46032893 15.4375 12.5 C15.45683594 11.5409375 15.47617187 10.581875 15.49609375 9.59375 C15.22091011 6.91009178 15.22091011 6.91009178 13.28515625 5.15625 C10.68326962 3.62376729 10.68326962 3.62376729 6 4 Z " fill="#FEFEFE" transform="translate(292,471)"/>
<path d="M0 0 C3.68623011 1.61272567 4.75355 2.630325 7 6 C8.04959201 11.33542604 8.40727031 14.95619554 6 20 C3.51348388 22.87503426 1.67805396 24.78873421 -2.171875 25.2734375 C-9.99068626 25.58145128 -9.99068626 25.58145128 -13.5625 22.6875 C-17.20099053 18.67583096 -17.28594064 15.3924295 -17.21875 10.21875 C-16.82735993 6.24893648 -15.10182135 3.98470802 -12.19921875 1.390625 C-8.38650743 -1.02025463 -4.36066183 -0.53006424 0 0 Z M-8.6875 6.0625 C-11.25700134 8.85221321 -11.25700134 8.85221321 -11.625 12.5 C-10.83955234 16.89850689 -9.61954319 18.42610262 -6 21 C-3.31860784 21.49709519 -3.31860784 21.49709519 -1 20 C1.61296502 15.78554029 2.18420362 14.12364209 1.375 9.1875 C0.24337869 5.76915695 0.24337869 5.76915695 -3 4 C-6.16796326 3.69559061 -6.16796326 3.69559061 -8.6875 6.0625 Z " fill="#FEFEFE" transform="translate(261,471)"/>
<path d="M0 0 C3.55680172 2.10504591 4.69468936 3.08406808 6 7 C3.25 7.6875 3.25 7.6875 0 8 C-1.34789347 7.01971384 -2.68212715 6.02028865 -4 5 C-6.63537508 4.99364754 -6.63537508 4.99364754 -9 6 C-11.48038907 9.7205836 -11.46337203 11.59796571 -11 16 C-9.54002013 18.62716577 -9.54002013 18.62716577 -7 20 C-3.80045046 19.85650653 -3.80045046 19.85650653 -1 19 C-0.67 18.01 -0.34 17.02 0 16 C-1.98 16 -3.96 16 -6 16 C-6 14.68 -6 13.36 -6 12 C-2.04 12 1.92 12 6 12 C6 15.3 6 18.6 6 22 C0.75328092 25.31371732 -3.95789552 25.882775 -10 25 C-13.55073734 23.28803735 -15.36617723 22.06597467 -17.375 18.6875 C-18.47155592 13.97230955 -18.48235296 10.32012389 -16.8125 5.75 C-12.66994412 -0.53525719 -7.07759281 -1.069193 0 0 Z " fill="#FEFEFE" transform="translate(369,471)"/>
<path d="M0 0 C1.48831242 0.00667405 2.97660807 0.01863442 4.46484375 0.03515625 C5.22345703 0.03966797 5.98207031 0.04417969 6.76367188 0.04882812 C8.64326246 0.06064945 10.52281274 0.07858547 12.40234375 0.09765625 C12.9290871 4.89283713 11.0929774 8.07085278 8.77734375 12.09765625 C4.96446131 18.96033308 1.59693729 25.92192151 -1.59765625 33.09765625 C-2.58765625 32.76765625 -3.57765625 32.43765625 -4.59765625 32.09765625 C-4.62231129 27.70109452 -4.64049467 23.30456905 -4.65258789 18.90795898 C-4.65762746 17.41120707 -4.66445912 15.91446009 -4.6730957 14.41772461 C-4.68517784 12.27065818 -4.69088816 10.12365663 -4.6953125 7.9765625 C-4.70054932 6.68306885 -4.70578613 5.3895752 -4.71118164 4.05688477 C-4.54544506 -0.26331554 -4.44088395 0.12054517 0 0 Z " fill="#FEFEFE" transform="translate(175.59765625,188.90234375)"/>
<path d="M0 0 C2.80018787 1.91232342 3.68976281 3.06928843 4.75 6.25 C4.87375 7.11625 4.87375 7.11625 5 8 C3.02 8 1.04 8 -1 8 C-1.33 7.01 -1.66 6.02 -2 5 C-3.65 5 -5.3 5 -7 5 C-7 5.99 -7 6.98 -7 8 C-5.82630859 8.39832031 -5.82630859 8.39832031 -4.62890625 8.8046875 C-3.11103516 9.33449219 -3.11103516 9.33449219 -1.5625 9.875 C-0.55316406 10.22304688 0.45617187 10.57109375 1.49609375 10.9296875 C4 12 4 12 5 14 C5.34179024 17.69133463 5.46422538 20.13786716 3.6875 23.4375 C-0.68230908 25.97808667 -5.08625429 25.85045599 -10 25 C-13.1875 22.75 -13.1875 22.75 -15 20 C-15 18.68 -15 17.36 -15 16 C-13.02 16 -11.04 16 -9 16 C-8.67 16.99 -8.34 17.98 -8 19 C-4.41672247 20.00217064 -4.41672247 20.00217064 -1 19 C-1.33 18.01 -1.66 17.02 -2 16 C-4.00060057 15.08478813 -4.00060057 15.08478813 -6.375 14.5 C-9.73113579 13.58170877 -11.8534555 12.81691645 -14 10 C-14.4375 6.5 -14.4375 6.5 -14 3 C-9.9274086 -1.01692956 -5.40261806 -0.81803368 0 0 Z " fill="#FEFEFE" transform="translate(144,471)"/>
<path d="M0 0 C2.64 0 5.28 0 8 0 C14.33485194 16.70842825 14.33485194 16.70842825 17 25 C14.69 25 12.38 25 10 25 C9.67 23.02 9.34 21.04 9 19 C5.7 19 2.4 19 -1 19 C-1.33 20.98 -1.66 22.96 -2 25 C-3.98 25 -5.96 25 -8 25 C-5.85406445 16.45115106 -3.0505873 8.25949525 0 0 Z M3 7 C2.34 9.64 1.68 12.28 1 15 C2.98 15 4.96 15 7 15 C6.34 12.36 5.68 9.72 5 7 C4.34 7 3.68 7 3 7 Z " fill="#FEFEFE" transform="translate(184,471)"/>
<path d="M0 0 C0.99 0 1.98 0 3 0 C3.76183594 1.64935547 3.76183594 1.64935547 4.5390625 3.33203125 C8.10690186 11.00844975 11.70592124 18.5745349 15.96875 25.8984375 C17 28 17 28 17 31 C14.35409986 31.02684679 11.70846904 31.04676357 9.0625 31.0625 C8.30775391 31.07087891 7.55300781 31.07925781 6.77539062 31.08789062 C4.85005687 31.09652441 2.92464419 31.05224333 1 31 C0 30 0 30 -0.11352539 27.13256836 C-0.10828857 25.88096924 -0.10305176 24.62937012 -0.09765625 23.33984375 C-0.0962413 22.67537735 -0.09482635 22.01091095 -0.09336853 21.3263092 C-0.08775518 19.19666101 -0.07520054 17.06711661 -0.0625 14.9375 C-0.05748671 13.49674631 -0.05292351 12.05599097 -0.04882812 10.61523438 C-0.03778145 7.07678898 -0.02050792 3.53840461 0 0 Z " fill="#FEFEFE" transform="translate(171,421)"/>
<path d="M0 0 C1.48831242 0.00667405 2.97660807 0.01863442 4.46484375 0.03515625 C5.22345703 0.03966797 5.98207031 0.04417969 6.76367188 0.04882812 C8.64326246 0.06064945 10.52281274 0.07858547 12.40234375 0.09765625 C11.75226013 3.06588373 10.78649241 5.62458619 9.4765625 8.36328125 C9.09177734 9.17152344 8.70699219 9.97976563 8.31054688 10.8125 C7.90771484 11.64910156 7.50488281 12.48570312 7.08984375 13.34765625 C6.69861328 14.16878906 6.30738281 14.98992187 5.90429688 15.8359375 C3.45976061 20.95203163 0.95206478 26.0332218 -1.59765625 31.09765625 C-2.58765625 30.76765625 -3.57765625 30.43765625 -4.59765625 30.09765625 C-4.62231371 25.98593065 -4.64049584 21.87423347 -4.65258789 17.76245117 C-4.65762705 16.36270397 -4.66445841 14.96296205 -4.6730957 13.56323242 C-4.68517945 11.55519848 -4.69035432 9.54712668 -4.6953125 7.5390625 C-4.70054932 6.32935791 -4.70578613 5.11965332 -4.71118164 3.87329102 C-4.54041331 -0.30190292 -4.31813847 0.11721331 0 0 Z " fill="#FEFEFE" transform="translate(175.59765625,324.90234375)"/>
<path d="M0 0 C0.66 0 1.32 0 2 0 C2 10.56 2 21.12 2 32 C-3.28 32 -8.56 32 -14 32 C-13.15160137 27.75800685 -12.18680642 24.90411095 -10.375 21.0625 C-9.84390625 19.93585938 -9.3128125 18.80921875 -8.765625 17.6484375 C-5.91733977 11.72904201 -2.96925025 5.85943762 0 0 Z " fill="#FEFEFE" transform="translate(144,420)"/>
<path d="M0 0 C5.28 0 10.56 0 16 0 C16 10.56 16 21.12 16 32 C13 31 13 31 11.89672852 29.26928711 C11.56084717 28.5294458 11.22496582 27.78960449 10.87890625 27.02734375 C10.50056641 26.20943359 10.12222656 25.39152344 9.73242188 24.54882812 C9.34634766 23.68708984 8.96027344 22.82535156 8.5625 21.9375 C7.79377325 20.25874596 7.02424898 18.58035687 6.25390625 16.90234375 C5.88152832 16.07976074 5.50915039 15.25717773 5.12548828 14.40966797 C3.7573769 11.48054446 2.25996083 8.63039424 0.71459961 5.79125977 C0 4 0 4 0 0 Z " fill="#FEFEFE" transform="translate(130,325)"/>
<path d="M0 0 C0.66 0 1.32 0 2 0 C2.02465622 4.25414623 2.04283899 8.50825498 2.05493164 12.76245117 C2.05997101 14.21070073 2.06680253 15.65894517 2.07543945 17.10717773 C2.08752247 19.18474588 2.09323211 21.26224697 2.09765625 23.33984375 C2.10551147 25.21724243 2.10551147 25.21724243 2.11352539 27.13256836 C2 30 2 30 1 31 C-1.53049402 31.07313567 -4.03304837 31.09247527 -6.5625 31.0625 C-7.27341797 31.05798828 -7.98433594 31.05347656 -8.71679688 31.04882812 C-10.47790013 31.03700864 -12.23896036 31.01907263 -14 31 C-11.79583693 20.28674227 -4.93523399 9.73905642 0 0 Z " fill="#FEFEFE" transform="translate(144,286)"/>
<path d="M0 0 C5.28 0 10.56 0 16 0 C16 9.9 16 19.8 16 30 C15.34 30.33 14.68 30.66 14 31 C10.9375 24.875 10.9375 24.875 9.99584961 22.98510742 C8.34097103 19.66662508 6.67341664 16.35583365 4.9765625 13.05859375 C4.6556665 12.43033691 4.33477051 11.80208008 4.00415039 11.15478516 C3.10160644 9.38900952 2.19350544 7.62607759 1.28515625 5.86328125 C0 3 0 3 0 0 Z " fill="#FEFEFE" transform="translate(130,189)"/>
<path d="M0 0 C2.28226374 1.4574101 3.34665441 2.79553922 5 5 C4.67 5.99 4.34 6.98 4 8 C1.6875 8.1875 1.6875 8.1875 -1 8 C-2 7 -3 6 -4 5 C-6.10231241 5.00469206 -6.10231241 5.00469206 -8 6 C-10.46270288 9.69405432 -10.22985417 11.63277072 -10 16 C-9.57145005 18.31036915 -9.57145005 18.31036915 -9 20 C-5.535 19.505 -5.535 19.505 -2 19 C-1.67 18.01 -1.34 17.02 -1 16 C0.65 16 2.3 16 4 16 C5 19 5 19 4.3125 21.0625 C2.73249218 23.3948925 1.58641302 23.93690141 -1 25 C-5.49370999 25.69134 -8.96363635 25.59535784 -12.9375 23.3125 C-16.0846262 19.78390396 -16.8858344 17.25582156 -17.3125 12.5625 C-16.90247962 7.88826761 -15.71474646 4.56224189 -12.19921875 1.359375 C-8.36786864 -1.00884851 -4.3454477 -0.78625225 0 0 Z " fill="#FEFEFE" transform="translate(169,471)"/>
<path d="M0 0 C5.94 0 11.88 0 18 0 C18 1.32 18 2.64 18 4 C14.04 4 10.08 4 6 4 C6 5.98 6 7.96 6 10 C9.3 10 12.6 10 16 10 C16 11.32 16 12.64 16 14 C12.7 14 9.4 14 6 14 C6 17.63 6 21.26 6 25 C4.02 25 2.04 25 0 25 C0 16.75 0 8.5 0 0 Z " fill="#FEFEFE" transform="translate(223,471)"/>
<path d="M0 0 C5.94 0 11.88 0 18 0 C18 1.32 18 2.64 18 4 C14.04 4 10.08 4 6 4 C6 5.98 6 7.96 6 10 C9.3 10 12.6 10 16 10 C16 11.32 16 12.64 16 14 C12.7 14 9.4 14 6 14 C6 17.63 6 21.26 6 25 C4.02 25 2.04 25 0 25 C0 16.75 0 8.5 0 0 Z " fill="#FEFEFE" transform="translate(202,471)"/>
<path d="M0 0 C1.98 0 3.96 0 6 0 C6 6.93 6 13.86 6 21 C9.96 21 13.92 21 18 21 C18 22.32 18 23.64 18 25 C12.06 25 6.12 25 0 25 C0 16.75 0 8.5 0 0 Z " fill="#FEFEFE" transform="translate(271,471)"/>
<path d="M0 0 C1.98 0 3.96 0 6 0 C6 8.25 6 16.5 6 25 C4.02 25 2.04 25 0 25 C0 16.75 0 8.5 0 0 Z " fill="#FEFEFE" transform="translate(317,471)"/>
<path d="M0 0 C2.64 0 5.28 0 8 0 C8 5.28 8 10.56 8 16 C4.73886424 13.8259095 4.00992828 12.56063562 2.3125 9.125 C1.87550781 8.26132812 1.43851563 7.39765625 0.98828125 6.5078125 C0 4 0 4 0 0 Z " fill="#FEFEFE" transform="translate(162,391)"/>
<path d="M0 0 C2.31 0 4.62 0 7 0 C6.34580901 5.06998019 4.1453591 9.41990777 2 14 C1.34 14 0.68 14 0 14 C0 9.38 0 4.76 0 0 Z " fill="#FEFEFE" transform="translate(148,391)"/>
<path d="M0 0 C0.33 0 0.66 0 1 0 C1 4.62 1 9.24 1 14 C-1.64 14 -4.28 14 -7 14 C-5.56032356 8.76481294 -3.18303389 4.36973991 0 0 Z " fill="#FEFEFE" transform="translate(169,369)"/>
<path d="M0 0 C2.77314087 1.38657043 3.25953457 3.1201136 4.625 5.875 C5.29402344 7.20144531 5.29402344 7.20144531 5.9765625 8.5546875 C7 11 7 11 7 14 C4.69 14 2.38 14 0 14 C0 9.38 0 4.76 0 0 Z " fill="#FEFEFE" transform="translate(148,234)"/>
<path d="M0 0 C2.31 0 4.62 0 7 0 C7 4.29 7 8.58 7 13 C4.46930592 10.46930592 3.31623046 9.01985937 1.8125 5.9375 C1.29623047 4.89916016 1.29623047 4.89916016 0.76953125 3.83984375 C0 2 0 2 0 0 Z " fill="#FEFEFE" transform="translate(163,257)"/>
<path d="M0 0 C0.33 0 0.66 0 1 0 C1 3.96 1 7.92 1 12 C-1.31 12 -3.62 12 -6 12 C-5.38144369 10.3725363 -4.75492695 8.74809644 -4.125 7.125 C-3.77695313 6.22007812 -3.42890625 5.31515625 -3.0703125 4.3828125 C-2 2 -2 2 0 0 Z " fill="#FEFEFE" transform="translate(169,236)"/>
<path d="M0 0 C2.97 0 5.94 0 9 0 C9 0.99 9 1.98 9 3 C7.02 3 5.04 3 3 3 C3 7.29 3 11.58 3 16 C2.01 16 1.02 16 0 16 C0 10.72 0 5.44 0 0 Z " fill="#FEFEFE" transform="translate(147,256)"/>
<path d="M0 0 C0.66 0 1.32 0 2 0 C3.65 3.63 5.3 7.26 7 11 C4.69 11 2.38 11 0 11 C0 7.37 0 3.74 0 0 Z " fill="#FEFEFE" transform="translate(148,372)"/>
</svg>
